<svg width="1908" height="1073" viewBox="0 0 1908 1073" fill="none" xmlns="http://www.w3.org/2000/svg">
<path d="M0 1073H1908V0.000244141H0V1073Z" fill="#F5CAC3"/>
<path fill-rule="evenodd" clip-rule="evenodd" d="M0 0.000254393H646.266C749.996 206.912 858.729 466.738 858.729 646.877C858.729 792.544 774.978 933.471 654.271 1073H0V0.000254393Z" fill="#637373"/>
<path fill-rule="evenodd" clip-rule="evenodd" d="M1470.95 0.000498533H1908V1073H1040.12C1071.16 915.079 1095.83 737.277 1141.36 518.818C1187.18 298.894 1318.62 128.654 1470.95 0.000498533Z" fill="#FF9A76"/>
<path fill-rule="evenodd" clip-rule="evenodd" d="M1731.91 0.000254393H1908V1073H1359.49C1457.36 825.868 1494.87 633.39 1560.97 351.011C1592.32 217.08 1657.72 98.8117 1731.91 0.000254393Z" fill="#679B9B"/>
<path fill-rule="evenodd" clip-rule="evenodd" d="M1908 818.88V1073H1537.57C1653.34 961.73 1787.23 878.783 1908 818.88Z" fill="#637373"/>
</svg>
