<svg width="1926" height="1083" viewBox="0 0 1926 1083" fill="none" xmlns="http://www.w3.org/2000/svg">
<path d="M0 0H1925.14V1083H0V0Z" fill="#637373"/>
<path fill-rule="evenodd" clip-rule="evenodd" d="M1925.14 1083V966.338C1853.71 948.275 1773.28 934.604 1683.17 928.074C1170.69 890.935 962.57 541.5 836.467 200.13C805.877 117.321 777.449 53.737 747.487 0H0V625.268C78.9334 739.649 161.144 880.68 242.288 1054.35C246.823 1064.05 251.33 1073.54 255.834 1083H1925.14Z" fill="#F7CCAC"/>
<path fill-rule="evenodd" clip-rule="evenodd" d="M1925.14 1083V966.338C1853.71 948.275 1773.28 934.604 1683.17 928.074C1170.69 890.935 962.57 541.5 836.467 200.13C805.877 117.321 777.449 53.737 747.487 0H0V58.9318C119.361 113.937 230.827 196.239 309.121 318.983C448.238 537.08 528.389 835.094 666.087 1083H1925.14Z" fill="#679B9B"/>
<path fill-rule="evenodd" clip-rule="evenodd" d="M1925.14 1083V966.338C1853.71 948.275 1773.28 934.604 1683.17 928.074C1170.69 890.935 962.57 541.5 836.467 200.13C805.877 117.321 777.449 53.737 747.487 0H397.737C477.483 98.4996 555.001 219.236 624.742 367.275C822.177 786.366 945.311 980.238 1103.21 1083H1925.14Z" fill="#F49787"/>
</svg>
