<svg width="512" height="512" viewBox="0 0 512 512" fill="none" xmlns="http://www.w3.org/2000/svg">
<path d="M256 512C397.385 512 512 397.385 512 256C512 114.615 397.385 0 256 0C114.615 0 0 114.615 0 256C0 397.385 114.615 512 256 512Z" fill="#F6BD60"/>
<path d="M509.268 293.428L390.64 174.801L375.595 192.002L314.898 133.763L158.313 263.47L253.64 358.797L146.034 403.365L254.652 511.983C255.102 511.985 255.55 512 256 512C384.669 512 491.153 417.068 509.268 293.428Z" fill="#121149"/>
<path d="M309.644 165.716V186.898H364.781C371.02 186.898 376.076 191.735 376.076 197.703V293.419C376.076 299.534 381.034 304.492 387.149 304.492C393.264 304.492 398.222 299.534 398.222 293.419V193.531C398.222 178.169 385.203 165.718 369.143 165.718H309.644V165.716V165.716Z" fill="#D35933"/>
<path d="M358.436 306.336C358.436 263.321 337.275 225.252 304.798 201.96H155.348C122.871 225.252 101.71 263.321 101.71 306.336C101.71 345.088 118.882 379.83 146.032 403.364H314.115C341.264 379.828 358.436 345.088 358.436 306.336Z" fill="white"/>
<path d="M304.799 201.959H228.418V403.365H314.115C341.265 379.829 358.437 345.088 358.437 306.337C358.436 263.321 337.275 225.252 304.799 201.959Z" fill="#D0D1D3"/>
<path d="M315.649 334.189C279.618 326.683 249.591 340.195 215.061 347.701C185.034 353.707 158.01 337.192 127.985 332.687C119.845 331.06 111.71 329.891 104.049 330.82C109.603 359.576 124.751 384.913 146.035 403.362H314.118C331.362 388.414 344.571 368.941 351.922 346.795C340.256 341.432 328.358 336.73 315.649 334.189Z" fill="#D35933"/>
<path d="M315.649 334.189C284.336 327.666 257.557 337.015 228.418 344.501V403.362H314.115C331.359 388.412 344.568 368.941 351.919 346.795C340.256 341.432 328.358 336.73 315.649 334.189Z" fill="#B54324"/>
<path d="M314.899 208.079H145.249V181.555L126.733 133.763H314.899V208.079Z" fill="white"/>
<path d="M314.905 133.758H228.417V208.076H314.905V133.758Z" fill="#D0D1D3"/>
<path d="M314.906 181.562H145.256V209.838H314.906V181.562Z" fill="#EAA22F"/>
<path d="M314.905 181.562H228.417V209.838H314.905V181.562Z" fill="#E09112"/>
</svg>
