<svg width="115" height="52" viewBox="0 0 115 52" fill="none" xmlns="http://www.w3.org/2000/svg">
<path d="M16.18 51.552C14.524 51.552 12.4233 51.2453 9.878 50.632C8.28333 51.0613 6.796 51.276 5.416 51.276C4.036 51.276 3.23867 51.23 3.024 51.138C3.23867 49.298 4.14333 44.7747 5.738 37.568C7.36333 30.3307 8.176 25.792 8.176 23.952C8.176 23.584 7.97667 23.0933 7.578 22.48C7.17933 21.8667 6.78067 21.3453 6.382 20.916L5.784 20.272L5.922 19.582C9.93933 18.754 14.2633 18.34 18.894 18.34C21.4393 18.34 23.5247 18.9533 25.15 20.18C26.806 21.376 27.634 23.0627 27.634 25.24C27.634 29.4413 25.0733 32.3547 19.952 33.98C22.0067 34.2253 23.724 35.0073 25.104 36.326C26.5147 37.614 27.22 39.4387 27.22 41.8C27.22 44.6827 26.1773 47.0287 24.092 48.838C22.0067 50.6473 19.3693 51.552 16.18 51.552ZM15.352 35.222C14.4933 35.222 13.7267 35.2987 13.052 35.452C11.7333 41.2787 10.89 45.342 10.522 47.642C11.2887 48.1633 12.4847 48.424 14.11 48.424C15.766 48.424 17.1767 47.78 18.342 46.492C19.5073 45.1733 20.09 43.2873 20.09 40.834C20.09 37.0927 18.5107 35.222 15.352 35.222ZM17.928 21.192C16.7627 21.192 16.0727 21.2993 15.858 21.514C15.4287 24.274 14.7233 27.8927 13.742 32.37C14.9687 32.37 15.8273 32.2933 16.318 32.14C16.8087 31.9867 17.238 31.7873 17.606 31.542C18.0047 31.2967 18.4493 30.9133 18.94 30.392C20.0133 29.2573 20.55 27.448 20.55 24.964C20.55 22.4493 19.676 21.192 17.928 21.192ZM33.5597 45.342C33.5597 45.342 33.6671 40.4813 33.8817 30.76C33.8817 26.896 33.6517 24.412 33.1917 23.308L30.9377 19.812L31.0757 19.122C33.2531 18.6313 36.3811 18.386 40.4597 18.386C41.0424 19.2753 41.3337 20.9313 41.3337 23.354C41.3337 25.746 41.1804 28.9813 40.8737 33.06C40.5671 37.108 40.4137 40.236 40.4137 42.444C40.4137 44.652 40.9351 45.756 41.9777 45.756C42.5911 45.756 43.4804 45.2653 44.6457 44.284C45.8111 43.272 46.8077 42.1833 47.6357 41.018C48.3104 34.0873 48.6477 29.4107 48.6477 26.988C48.6477 24.5653 48.3104 22.3113 47.6357 20.226C49.2611 19.398 51.9291 18.7693 55.6397 18.34C55.9771 19.444 56.1457 21.008 56.1457 23.032C56.1457 25.0253 55.8237 28.506 55.1797 33.474C54.5664 38.442 54.2597 41.7387 54.2597 43.364C54.2597 44.9587 54.7197 45.756 55.6397 45.756C56.5904 45.756 57.8631 44.8667 59.4577 43.088C61.0524 41.3093 62.5091 39.1013 63.8277 36.464C65.1771 33.796 65.9284 31.3887 66.0817 29.242L61.2057 26.39C61.4204 24.55 61.8497 22.9707 62.4937 21.652C63.1684 20.3027 63.7817 19.4133 64.3337 18.984L65.1617 18.34C67.0324 18.34 68.4584 18.8307 69.4397 19.812C70.4517 20.7627 70.9577 21.8973 70.9577 23.216C70.9577 25.7 70.3291 28.598 69.0717 31.91C67.8451 35.222 66.3117 38.3193 64.4717 41.202C62.6624 44.0847 60.5924 46.538 58.2617 48.562C55.9311 50.5553 53.7844 51.552 51.8217 51.552C50.6564 51.552 49.6137 51 48.6937 49.896C47.8044 48.792 47.3444 47.3813 47.3137 45.664C45.9644 47.504 44.5384 48.9453 43.0357 49.988C41.5331 51.0307 40.0917 51.552 38.7117 51.552C37.3317 51.552 36.1204 50.9847 35.0777 49.85C34.0657 48.6847 33.5597 47.182 33.5597 45.342ZM84.3265 51.552C82.6705 51.552 80.5698 51.2453 78.0245 50.632C76.4298 51.0613 74.9425 51.276 73.5625 51.276C72.1825 51.276 71.3852 51.23 71.1705 51.138C71.3852 49.298 72.2898 44.7747 73.8845 37.568C75.5098 30.3307 76.3225 25.792 76.3225 23.952C76.3225 23.584 76.1232 23.0933 75.7245 22.48C75.3258 21.8667 74.9272 21.3453 74.5285 20.916L73.9305 20.272L74.0685 19.582C78.0858 18.754 82.4098 18.34 87.0405 18.34C89.5858 18.34 91.6712 18.9533 93.2965 20.18C94.9525 21.376 95.7805 23.0627 95.7805 25.24C95.7805 29.4413 93.2198 32.3547 88.0985 33.98C90.1532 34.2253 91.8705 35.0073 93.2505 36.326C94.6612 37.614 95.3665 39.4387 95.3665 41.8C95.3665 44.6827 94.3238 47.0287 92.2385 48.838C90.1532 50.6473 87.5158 51.552 84.3265 51.552ZM83.4985 35.222C82.6398 35.222 81.8732 35.2987 81.1985 35.452C79.8798 41.2787 79.0365 45.342 78.6685 47.642C79.4352 48.1633 80.6312 48.424 82.2565 48.424C83.9125 48.424 85.3232 47.78 86.4885 46.492C87.6538 45.1733 88.2365 43.2873 88.2365 40.834C88.2365 37.0927 86.6572 35.222 83.4985 35.222ZM86.0745 21.192C84.9092 21.192 84.2192 21.2993 84.0045 21.514C83.5752 24.274 82.8698 27.8927 81.8885 32.37C83.1152 32.37 83.9738 32.2933 84.4645 32.14C84.9552 31.9867 85.3845 31.7873 85.7525 31.542C86.1512 31.2967 86.5958 30.9133 87.0865 30.392C88.1598 29.2573 88.6965 27.448 88.6965 24.964C88.6965 22.4493 87.8225 21.192 86.0745 21.192Z" fill="#F28482"/>
<path d="M18.18 49.552C16.524 49.552 14.4233 49.2453 11.878 48.632C10.2833 49.0613 8.796 49.276 7.416 49.276C6.036 49.276 5.23867 49.23 5.024 49.138C5.23867 47.298 6.14333 42.7747 7.738 35.568C9.36333 28.3307 10.176 23.792 10.176 21.952C10.176 21.584 9.97667 21.0933 9.578 20.48C9.17933 19.8667 8.78067 19.3453 8.382 18.916L7.784 18.272L7.922 17.582C11.9393 16.754 16.2633 16.34 20.894 16.34C23.4393 16.34 25.5247 16.9533 27.15 18.18C28.806 19.376 29.634 21.0627 29.634 23.24C29.634 27.4413 27.0733 30.3547 21.952 31.98C24.0067 32.2253 25.724 33.0073 27.104 34.326C28.5147 35.614 29.22 37.4387 29.22 39.8C29.22 42.6827 28.1773 45.0287 26.092 46.838C24.0067 48.6473 21.3693 49.552 18.18 49.552ZM17.352 33.222C16.4933 33.222 15.7267 33.2987 15.052 33.452C13.7333 39.2787 12.89 43.342 12.522 45.642C13.2887 46.1633 14.4847 46.424 16.11 46.424C17.766 46.424 19.1767 45.78 20.342 44.492C21.5073 43.1733 22.09 41.2873 22.09 38.834C22.09 35.0927 20.5107 33.222 17.352 33.222ZM19.928 19.192C18.7627 19.192 18.0727 19.2993 17.858 19.514C17.4287 22.274 16.7233 25.8927 15.742 30.37C16.9687 30.37 17.8273 30.2933 18.318 30.14C18.8087 29.9867 19.238 29.7873 19.606 29.542C20.0047 29.2967 20.4493 28.9133 20.94 28.392C22.0133 27.2573 22.55 25.448 22.55 22.964C22.55 20.4493 21.676 19.192 19.928 19.192ZM35.5597 43.342C35.5597 43.342 35.6671 38.4813 35.8817 28.76C35.8817 24.896 35.6517 22.412 35.1917 21.308L32.9377 17.812L33.0757 17.122C35.2531 16.6313 38.3811 16.386 42.4597 16.386C43.0424 17.2753 43.3337 18.9313 43.3337 21.354C43.3337 23.746 43.1804 26.9813 42.8737 31.06C42.5671 35.108 42.4137 38.236 42.4137 40.444C42.4137 42.652 42.9351 43.756 43.9777 43.756C44.5911 43.756 45.4804 43.2653 46.6457 42.284C47.8111 41.272 48.8077 40.1833 49.6357 39.018C50.3104 32.0873 50.6477 27.4107 50.6477 24.988C50.6477 22.5653 50.3104 20.3113 49.6357 18.226C51.2611 17.398 53.9291 16.7693 57.6397 16.34C57.9771 17.444 58.1457 19.008 58.1457 21.032C58.1457 23.0253 57.8237 26.506 57.1797 31.474C56.5664 36.442 56.2597 39.7387 56.2597 41.364C56.2597 42.9587 56.7197 43.756 57.6397 43.756C58.5904 43.756 59.8631 42.8667 61.4577 41.088C63.0524 39.3093 64.5091 37.1013 65.8277 34.464C67.1771 31.796 67.9284 29.3887 68.0817 27.242L63.2057 24.39C63.4204 22.55 63.8497 20.9707 64.4937 19.652C65.1684 18.3027 65.7817 17.4133 66.3337 16.984L67.1617 16.34C69.0324 16.34 70.4584 16.8307 71.4397 17.812C72.4517 18.7627 72.9577 19.8973 72.9577 21.216C72.9577 23.7 72.3291 26.598 71.0717 29.91C69.8451 33.222 68.3117 36.3193 66.4717 39.202C64.6624 42.0847 62.5924 44.538 60.2617 46.562C57.9311 48.5553 55.7844 49.552 53.8217 49.552C52.6564 49.552 51.6137 49 50.6937 47.896C49.8044 46.792 49.3444 45.3813 49.3137 43.664C47.9644 45.504 46.5384 46.9453 45.0357 47.988C43.5331 49.0307 42.0917 49.552 40.7117 49.552C39.3317 49.552 38.1204 48.9847 37.0777 47.85C36.0657 46.6847 35.5597 45.182 35.5597 43.342ZM86.3265 49.552C84.6705 49.552 82.5698 49.2453 80.0245 48.632C78.4298 49.0613 76.9425 49.276 75.5625 49.276C74.1825 49.276 73.3852 49.23 73.1705 49.138C73.3852 47.298 74.2898 42.7747 75.8845 35.568C77.5098 28.3307 78.3225 23.792 78.3225 21.952C78.3225 21.584 78.1232 21.0933 77.7245 20.48C77.3258 19.8667 76.9272 19.3453 76.5285 18.916L75.9305 18.272L76.0685 17.582C80.0858 16.754 84.4098 16.34 89.0405 16.34C91.5858 16.34 93.6712 16.9533 95.2965 18.18C96.9525 19.376 97.7805 21.0627 97.7805 23.24C97.7805 27.4413 95.2198 30.3547 90.0985 31.98C92.1532 32.2253 93.8705 33.0073 95.2505 34.326C96.6612 35.614 97.3665 37.4387 97.3665 39.8C97.3665 42.6827 96.3238 45.0287 94.2385 46.838C92.1532 48.6473 89.5158 49.552 86.3265 49.552ZM85.4985 33.222C84.6398 33.222 83.8732 33.2987 83.1985 33.452C81.8798 39.2787 81.0365 43.342 80.6685 45.642C81.4352 46.1633 82.6312 46.424 84.2565 46.424C85.9125 46.424 87.3232 45.78 88.4885 44.492C89.6538 43.1733 90.2365 41.2873 90.2365 38.834C90.2365 35.0927 88.6572 33.222 85.4985 33.222ZM88.0745 19.192C86.9092 19.192 86.2192 19.2993 86.0045 19.514C85.5752 22.274 84.8698 25.8927 83.8885 30.37C85.1152 30.37 85.9738 30.2933 86.4645 30.14C86.9552 29.9867 87.3845 29.7873 87.7525 29.542C88.1512 29.2967 88.5958 28.9133 89.0865 28.392C90.1598 27.2573 90.6965 25.448 90.6965 22.964C90.6965 20.4493 89.8225 19.192 88.0745 19.192Z" fill="#84A59D"/>
<path d="M20.18 47.552C18.524 47.552 16.4233 47.2453 13.878 46.632C12.2833 47.0613 10.796 47.276 9.416 47.276C8.036 47.276 7.23867 47.23 7.024 47.138C7.23867 45.298 8.14333 40.7747 9.738 33.568C11.3633 26.3307 12.176 21.792 12.176 19.952C12.176 19.584 11.9767 19.0933 11.578 18.48C11.1793 17.8667 10.7807 17.3453 10.382 16.916L9.784 16.272L9.922 15.582C13.9393 14.754 18.2633 14.34 22.894 14.34C25.4393 14.34 27.5247 14.9533 29.15 16.18C30.806 17.376 31.634 19.0627 31.634 21.24C31.634 25.4413 29.0733 28.3547 23.952 29.98C26.0067 30.2253 27.724 31.0073 29.104 32.326C30.5147 33.614 31.22 35.4387 31.22 37.8C31.22 40.6827 30.1773 43.0287 28.092 44.838C26.0067 46.6473 23.3693 47.552 20.18 47.552ZM19.352 31.222C18.4933 31.222 17.7267 31.2987 17.052 31.452C15.7333 37.2787 14.89 41.342 14.522 43.642C15.2887 44.1633 16.4847 44.424 18.11 44.424C19.766 44.424 21.1767 43.78 22.342 42.492C23.5073 41.1733 24.09 39.2873 24.09 36.834C24.09 33.0927 22.5107 31.222 19.352 31.222ZM21.928 17.192C20.7627 17.192 20.0727 17.2993 19.858 17.514C19.4287 20.274 18.7233 23.8927 17.742 28.37C18.9687 28.37 19.8273 28.2933 20.318 28.14C20.8087 27.9867 21.238 27.7873 21.606 27.542C22.0047 27.2967 22.4493 26.9133 22.94 26.392C24.0133 25.2573 24.55 23.448 24.55 20.964C24.55 18.4493 23.676 17.192 21.928 17.192ZM37.5597 41.342C37.5597 41.342 37.6671 36.4813 37.8817 26.76C37.8817 22.896 37.6517 20.412 37.1917 19.308L34.9377 15.812L35.0757 15.122C37.2531 14.6313 40.3811 14.386 44.4597 14.386C45.0424 15.2753 45.3337 16.9313 45.3337 19.354C45.3337 21.746 45.1804 24.9813 44.8737 29.06C44.5671 33.108 44.4137 36.236 44.4137 38.444C44.4137 40.652 44.9351 41.756 45.9777 41.756C46.5911 41.756 47.4804 41.2653 48.6457 40.284C49.8111 39.272 50.8077 38.1833 51.6357 37.018C52.3104 30.0873 52.6477 25.4107 52.6477 22.988C52.6477 20.5653 52.3104 18.3113 51.6357 16.226C53.2611 15.398 55.9291 14.7693 59.6397 14.34C59.9771 15.444 60.1457 17.008 60.1457 19.032C60.1457 21.0253 59.8237 24.506 59.1797 29.474C58.5664 34.442 58.2597 37.7387 58.2597 39.364C58.2597 40.9587 58.7197 41.756 59.6397 41.756C60.5904 41.756 61.8631 40.8667 63.4577 39.088C65.0524 37.3093 66.5091 35.1013 67.8277 32.464C69.1771 29.796 69.9284 27.3887 70.0817 25.242L65.2057 22.39C65.4204 20.55 65.8497 18.9707 66.4937 17.652C67.1684 16.3027 67.7817 15.4133 68.3337 14.984L69.1617 14.34C71.0324 14.34 72.4584 14.8307 73.4397 15.812C74.4517 16.7627 74.9577 17.8973 74.9577 19.216C74.9577 21.7 74.3291 24.598 73.0717 27.91C71.8451 31.222 70.3117 34.3193 68.4717 37.202C66.6624 40.0847 64.5924 42.538 62.2617 44.562C59.9311 46.5553 57.7844 47.552 55.8217 47.552C54.6564 47.552 53.6137 47 52.6937 45.896C51.8044 44.792 51.3444 43.3813 51.3137 41.664C49.9644 43.504 48.5384 44.9453 47.0357 45.988C45.5331 47.0307 44.0917 47.552 42.7117 47.552C41.3317 47.552 40.1204 46.9847 39.0777 45.85C38.0657 44.6847 37.5597 43.182 37.5597 41.342ZM88.3265 47.552C86.6705 47.552 84.5698 47.2453 82.0245 46.632C80.4298 47.0613 78.9425 47.276 77.5625 47.276C76.1825 47.276 75.3852 47.23 75.1705 47.138C75.3852 45.298 76.2898 40.7747 77.8845 33.568C79.5098 26.3307 80.3225 21.792 80.3225 19.952C80.3225 19.584 80.1232 19.0933 79.7245 18.48C79.3258 17.8667 78.9272 17.3453 78.5285 16.916L77.9305 16.272L78.0685 15.582C82.0858 14.754 86.4098 14.34 91.0405 14.34C93.5858 14.34 95.6712 14.9533 97.2965 16.18C98.9525 17.376 99.7805 19.0627 99.7805 21.24C99.7805 25.4413 97.2198 28.3547 92.0985 29.98C94.1532 30.2253 95.8705 31.0073 97.2505 32.326C98.6612 33.614 99.3665 35.4387 99.3665 37.8C99.3665 40.6827 98.3238 43.0287 96.2385 44.838C94.1532 46.6473 91.5158 47.552 88.3265 47.552ZM87.4985 31.222C86.6398 31.222 85.8732 31.2987 85.1985 31.452C83.8798 37.2787 83.0365 41.342 82.6685 43.642C83.4352 44.1633 84.6312 44.424 86.2565 44.424C87.9125 44.424 89.3232 43.78 90.4885 42.492C91.6538 41.1733 92.2365 39.2873 92.2365 36.834C92.2365 33.0927 90.6572 31.222 87.4985 31.222ZM90.0745 17.192C88.9092 17.192 88.2192 17.2993 88.0045 17.514C87.5752 20.274 86.8698 23.8927 85.8885 28.37C87.1152 28.37 87.9738 28.2933 88.4645 28.14C88.9552 27.9867 89.3845 27.7873 89.7525 27.542C90.1512 27.2967 90.5958 26.9133 91.0865 26.392C92.1598 25.2573 92.6965 23.448 92.6965 20.964C92.6965 18.4493 91.8225 17.192 90.0745 17.192Z" fill="#F6BD60"/>
<path d="M22.18 46.552C20.524 46.552 18.4233 46.2453 15.878 45.632C14.2833 46.0613 12.796 46.276 11.416 46.276C10.036 46.276 9.23867 46.23 9.024 46.138C9.23867 44.298 10.1433 39.7747 11.738 32.568C13.3633 25.3307 14.176 20.792 14.176 18.952C14.176 18.584 13.9767 18.0933 13.578 17.48C13.1793 16.8667 12.7807 16.3453 12.382 15.916L11.784 15.272L11.922 14.582C15.9393 13.754 20.2633 13.34 24.894 13.34C27.4393 13.34 29.5247 13.9533 31.15 15.18C32.806 16.376 33.634 18.0627 33.634 20.24C33.634 24.4413 31.0733 27.3547 25.952 28.98C28.0067 29.2253 29.724 30.0073 31.104 31.326C32.5147 32.614 33.22 34.4387 33.22 36.8C33.22 39.6827 32.1773 42.0287 30.092 43.838C28.0067 45.6473 25.3693 46.552 22.18 46.552ZM21.352 30.222C20.4933 30.222 19.7267 30.2987 19.052 30.452C17.7333 36.2787 16.89 40.342 16.522 42.642C17.2887 43.1633 18.4847 43.424 20.11 43.424C21.766 43.424 23.1767 42.78 24.342 41.492C25.5073 40.1733 26.09 38.2873 26.09 35.834C26.09 32.0927 24.5107 30.222 21.352 30.222ZM23.928 16.192C22.7627 16.192 22.0727 16.2993 21.858 16.514C21.4287 19.274 20.7233 22.8927 19.742 27.37C20.9687 27.37 21.8273 27.2933 22.318 27.14C22.8087 26.9867 23.238 26.7873 23.606 26.542C24.0047 26.2967 24.4493 25.9133 24.94 25.392C26.0133 24.2573 26.55 22.448 26.55 19.964C26.55 17.4493 25.676 16.192 23.928 16.192ZM39.5597 40.342C39.5597 40.342 39.6671 35.4813 39.8817 25.76C39.8817 21.896 39.6517 19.412 39.1917 18.308L36.9377 14.812L37.0757 14.122C39.2531 13.6313 42.3811 13.386 46.4597 13.386C47.0424 14.2753 47.3337 15.9313 47.3337 18.354C47.3337 20.746 47.1804 23.9813 46.8737 28.06C46.5671 32.108 46.4137 35.236 46.4137 37.444C46.4137 39.652 46.9351 40.756 47.9777 40.756C48.5911 40.756 49.4804 40.2653 50.6457 39.284C51.8111 38.272 52.8077 37.1833 53.6357 36.018C54.3104 29.0873 54.6477 24.4107 54.6477 21.988C54.6477 19.5653 54.3104 17.3113 53.6357 15.226C55.2611 14.398 57.9291 13.7693 61.6397 13.34C61.9771 14.444 62.1457 16.008 62.1457 18.032C62.1457 20.0253 61.8237 23.506 61.1797 28.474C60.5664 33.442 60.2597 36.7387 60.2597 38.364C60.2597 39.9587 60.7197 40.756 61.6397 40.756C62.5904 40.756 63.8631 39.8667 65.4577 38.088C67.0524 36.3093 68.5091 34.1013 69.8277 31.464C71.1771 28.796 71.9284 26.3887 72.0817 24.242L67.2057 21.39C67.4204 19.55 67.8497 17.9707 68.4937 16.652C69.1684 15.3027 69.7817 14.4133 70.3337 13.984L71.1617 13.34C73.0324 13.34 74.4584 13.8307 75.4397 14.812C76.4517 15.7627 76.9577 16.8973 76.9577 18.216C76.9577 20.7 76.3291 23.598 75.0717 26.91C73.8451 30.222 72.3117 33.3193 70.4717 36.202C68.6624 39.0847 66.5924 41.538 64.2617 43.562C61.9311 45.5553 59.7844 46.552 57.8217 46.552C56.6564 46.552 55.6137 46 54.6937 44.896C53.8044 43.792 53.3444 42.3813 53.3137 40.664C51.9644 42.504 50.5384 43.9453 49.0357 44.988C47.5331 46.0307 46.0917 46.552 44.7117 46.552C43.3317 46.552 42.1204 45.9847 41.0777 44.85C40.0657 43.6847 39.5597 42.182 39.5597 40.342ZM90.3265 46.552C88.6705 46.552 86.5698 46.2453 84.0245 45.632C82.4298 46.0613 80.9425 46.276 79.5625 46.276C78.1825 46.276 77.3852 46.23 77.1705 46.138C77.3852 44.298 78.2898 39.7747 79.8845 32.568C81.5098 25.3307 82.3225 20.792 82.3225 18.952C82.3225 18.584 82.1232 18.0933 81.7245 17.48C81.3258 16.8667 80.9272 16.3453 80.5285 15.916L79.9305 15.272L80.0685 14.582C84.0858 13.754 88.4098 13.34 93.0405 13.34C95.5858 13.34 97.6712 13.9533 99.2965 15.18C100.952 16.376 101.78 18.0627 101.78 20.24C101.78 24.4413 99.2198 27.3547 94.0985 28.98C96.1532 29.2253 97.8705 30.0073 99.2505 31.326C100.661 32.614 101.366 34.4387 101.366 36.8C101.366 39.6827 100.324 42.0287 98.2385 43.838C96.1532 45.6473 93.5158 46.552 90.3265 46.552ZM89.4985 30.222C88.6398 30.222 87.8732 30.2987 87.1985 30.452C85.8798 36.2787 85.0365 40.342 84.6685 42.642C85.4352 43.1633 86.6312 43.424 88.2565 43.424C89.9125 43.424 91.3232 42.78 92.4885 41.492C93.6538 40.1733 94.2365 38.2873 94.2365 35.834C94.2365 32.0927 92.6572 30.222 89.4985 30.222ZM92.0745 16.192C90.9092 16.192 90.2192 16.2993 90.0045 16.514C89.5752 19.274 88.8698 22.8927 87.8885 27.37C89.1152 27.37 89.9738 27.2933 90.4645 27.14C90.9552 26.9867 91.3845 26.7873 91.7525 26.542C92.1512 26.2967 92.5958 25.9133 93.0865 25.392C94.1598 24.2573 94.6965 22.448 94.6965 19.964C94.6965 17.4493 93.8225 16.192 92.0745 16.192Z" fill="#F7EDE2"/>
<path d="M15.878 45.632L15.9366 45.389L15.8746 45.374L15.813 45.3906L15.878 45.632ZM9.024 46.138L8.77568 46.109L8.75407 46.2943L8.92552 46.3678L9.024 46.138ZM11.738 32.568L11.4941 32.5132L11.4939 32.514L11.738 32.568ZM13.578 17.48L13.3684 17.6162L13.3684 17.6162L13.578 17.48ZM12.382 15.916L12.5652 15.7459L12.382 15.916ZM11.784 15.272L11.5389 15.223L11.5138 15.3484L11.6008 15.4421L11.784 15.272ZM11.922 14.582L11.8715 14.3371L11.7093 14.3706L11.6769 14.533L11.922 14.582ZM31.15 15.18L30.9994 15.3796L31.0036 15.3827L31.15 15.18ZM25.952 28.98L25.8764 28.7417L25.9224 29.2282L25.952 28.98ZM31.104 31.326L30.9312 31.5068L30.9354 31.5106L31.104 31.326ZM30.092 43.838L30.2558 44.0268L30.092 43.838ZM19.052 30.452L18.9966 30.2082L18.8429 30.2431L18.8082 30.3968L19.052 30.452ZM16.522 42.642L16.2751 42.6025L16.25 42.7594L16.3814 42.8487L16.522 42.642ZM24.342 41.492L24.5274 41.6597L24.5293 41.6575L24.342 41.492ZM21.858 16.514L21.6812 16.3372L21.6235 16.3949L21.611 16.4756L21.858 16.514ZM19.742 27.37L19.4978 27.3165L19.4313 27.62H19.742V27.37ZM23.606 26.542L23.4749 26.3289L23.4673 26.334L23.606 26.542ZM24.94 25.392L24.7584 25.2202L24.758 25.2207L24.94 25.392ZM22.18 46.302C20.5517 46.302 18.4724 46 15.9366 45.389L15.8194 45.875C18.3742 46.4907 20.4963 46.802 22.18 46.802V46.302ZM15.813 45.3906C14.2355 45.8153 12.7702 46.026 11.416 46.026V46.526C12.8218 46.526 14.3312 46.3074 15.943 45.8734L15.813 45.3906ZM11.416 46.026C10.7279 46.026 10.1891 46.0145 9.7974 45.9919C9.60138 45.9806 9.44557 45.9667 9.32803 45.9507C9.20388 45.9337 9.1428 45.9169 9.12248 45.9082L8.92552 46.3678C9.01253 46.4051 9.13162 46.4285 9.26047 46.4461C9.39593 46.4646 9.56595 46.4794 9.7686 46.4911C10.1743 46.5145 10.7241 46.526 11.416 46.526V46.026ZM9.27232 46.167C9.48518 44.3425 10.3864 39.8333 11.9821 32.622L11.4939 32.514C9.90026 39.716 8.99216 44.2535 8.77568 46.109L9.27232 46.167ZM11.9819 32.6228C12.795 29.0024 13.4053 26.0545 13.8126 23.7801C14.2188 21.5114 14.426 19.8968 14.426 18.952H13.926C13.926 19.8472 13.7269 21.4219 13.3204 23.6919C12.915 25.9562 12.3064 28.8963 11.4941 32.5132L11.9819 32.6228ZM14.426 18.952C14.426 18.5073 14.1911 17.9645 13.7876 17.3438L13.3684 17.6162C13.7622 18.2221 13.926 18.6607 13.926 18.952H14.426ZM13.7876 17.3438C13.383 16.7212 12.9757 16.1879 12.5652 15.7459L12.1988 16.0861C12.5857 16.5027 12.9757 17.0121 13.3684 17.6162L13.7876 17.3438ZM12.5652 15.7459L11.9672 15.1019L11.6008 15.4421L12.1988 16.0861L12.5652 15.7459ZM12.0291 15.321L12.1671 14.631L11.6769 14.533L11.5389 15.223L12.0291 15.321ZM11.9725 14.8269C15.9712 14.0027 20.2782 13.59 24.894 13.59V13.09C20.2485 13.09 15.9074 13.5053 11.8715 14.3371L11.9725 14.8269ZM24.894 13.59C27.3988 13.59 29.4273 14.1931 30.9994 15.3795L31.3006 14.9805C29.622 13.7136 27.4799 13.09 24.894 13.09V13.59ZM31.0036 15.3827C32.5897 16.5282 33.384 18.1367 33.384 20.24H33.884C33.884 17.9886 33.0223 16.2238 31.2964 14.9773L31.0036 15.3827ZM33.384 20.24C33.384 22.2854 32.7625 24.0039 31.5257 25.411C30.2848 26.8227 28.4097 27.9377 25.8764 28.7417L26.0276 29.2183C28.6157 28.3969 30.5815 27.2426 31.9013 25.741C33.2252 24.2348 33.884 22.3959 33.884 20.24H33.384ZM25.9224 29.2282C27.9281 29.4677 29.5938 30.2287 30.9313 31.5067L31.2767 31.1453C29.8542 29.786 28.0853 28.9829 25.9816 28.7318L25.9224 29.2282ZM30.9354 31.5106C32.2824 32.7404 32.97 34.4911 32.97 36.8H33.47C33.47 34.3863 32.747 32.4876 31.2726 31.1414L30.9354 31.5106ZM32.97 36.8C32.97 39.6139 31.9561 41.8897 29.9282 43.6492L30.2558 44.0268C32.3986 42.1677 33.47 39.7515 33.47 36.8H32.97ZM29.9282 43.6492C27.8953 45.413 25.319 46.302 22.18 46.302V46.802C25.4196 46.802 28.1181 45.8817 30.2558 44.0268L29.9282 43.6492ZM21.352 29.972C20.479 29.972 19.6932 30.0499 18.9966 30.2082L19.1074 30.6958C19.7602 30.5474 20.5077 30.472 21.352 30.472V29.972ZM18.8082 30.3968C17.4896 36.2231 16.6446 40.2936 16.2751 42.6025L16.7689 42.6815C17.1354 40.3904 17.9771 36.3342 19.2958 30.5072L18.8082 30.3968ZM16.3814 42.8487C17.2104 43.4125 18.4678 43.674 20.11 43.674V43.174C18.5015 43.174 17.3669 42.9142 16.6626 42.4353L16.3814 42.8487ZM20.11 43.674C21.8405 43.674 23.3173 42.9972 24.5274 41.6597L24.1566 41.3243C23.0361 42.5628 21.6915 43.174 20.11 43.174V43.674ZM24.5293 41.6575C25.7485 40.2779 26.34 38.3243 26.34 35.834H25.84C25.84 38.2503 25.2661 40.0687 24.1547 41.3265L24.5293 41.6575ZM26.34 35.834C26.34 33.9342 25.9399 32.4627 25.0965 31.4637C24.2463 30.4567 22.982 29.972 21.352 29.972V30.472C22.8807 30.472 23.9854 30.9227 24.7145 31.7863C25.4504 32.658 25.84 33.9925 25.84 35.834H26.34ZM23.928 15.942C23.3398 15.942 22.8614 15.969 22.4981 16.0255C22.3164 16.0537 22.1571 16.0903 22.0243 16.1376C21.8944 16.1838 21.772 16.2464 21.6812 16.3372L22.0348 16.6908C22.0513 16.6742 22.0957 16.6429 22.192 16.6086C22.2853 16.5754 22.4116 16.5449 22.5749 16.5195C22.9016 16.4687 23.3509 16.442 23.928 16.442V15.942ZM21.611 16.4756C21.1828 19.2284 20.4786 22.8414 19.4978 27.3165L19.9862 27.4235C20.968 22.9439 21.6746 19.3196 22.105 16.5524L21.611 16.4756ZM19.742 27.62C20.9686 27.62 21.8618 27.5445 22.3926 27.3786L22.2434 26.9014C21.7929 27.0422 20.9687 27.12 19.742 27.12V27.62ZM22.3926 27.3786C22.9024 27.2193 23.354 27.0105 23.7447 26.75L23.4673 26.334C23.122 26.5642 22.715 26.754 22.2434 26.9014L22.3926 27.3786ZM23.737 26.7549C24.1616 26.4936 24.6234 26.0932 25.1221 25.5633L24.758 25.2207C24.2753 25.7335 23.8478 26.0997 23.475 26.3291L23.737 26.7549ZM25.1216 25.5638C26.2586 24.3618 26.8 22.4758 26.8 19.964H26.3C26.3 22.4202 25.7681 24.1528 24.7584 25.2202L25.1216 25.5638ZM26.8 19.964C26.8 18.6854 26.5792 17.682 26.0998 16.9923C25.6089 16.2861 24.8705 15.942 23.928 15.942V16.442C24.7335 16.442 25.3061 16.7266 25.6892 17.2777C26.0838 17.8453 26.3 18.7279 26.3 19.964H26.8ZM39.5597 40.342L39.3097 40.3365V40.342H39.5597ZM39.8817 25.76L40.1317 25.7655V25.76H39.8817ZM39.1917 18.308L39.4225 18.2118L39.4139 18.1913L39.4018 18.1725L39.1917 18.308ZM36.9377 14.812L36.6926 14.763L36.6727 14.8623L36.7276 14.9475L36.9377 14.812ZM37.0757 14.122L37.0208 13.8781L36.8624 13.9138L36.8306 14.073L37.0757 14.122ZM46.4597 13.386L46.6689 13.249L46.5948 13.136H46.4597V13.386ZM46.8737 28.06L47.123 28.0789L47.123 28.0787L46.8737 28.06ZM50.6457 39.284L50.8068 39.4752L50.8097 39.4728L50.6457 39.284ZM53.6357 36.018L53.8395 36.1628L53.8781 36.1085L53.8846 36.0422L53.6357 36.018ZM53.6357 15.226L53.5223 15.0032L53.3322 15.1L53.3979 15.303L53.6357 15.226ZM61.6397 13.34L61.8788 13.2669L61.8179 13.0677L61.611 13.0917L61.6397 13.34ZM61.1797 28.474L60.9318 28.4419L60.9316 28.4434L61.1797 28.474ZM65.4577 38.088L65.2716 37.9211L65.2716 37.9211L65.4577 38.088ZM69.8277 31.464L69.6046 31.3512L69.6041 31.3522L69.8277 31.464ZM72.0817 24.242L72.3311 24.2598L72.3422 24.1047L72.208 24.0262L72.0817 24.242ZM67.2057 21.39L66.9574 21.361L66.9385 21.5233L67.0795 21.6058L67.2057 21.39ZM68.4937 16.652L68.2701 16.5402L68.2691 16.5423L68.4937 16.652ZM70.3337 13.984L70.1802 13.7867L70.3337 13.984ZM71.1617 13.34V13.09H71.076L71.0083 13.1427L71.1617 13.34ZM75.4397 14.812L75.2629 14.9889L75.2686 14.9942L75.4397 14.812ZM75.0717 26.91L74.838 26.8213L74.8373 26.8232L75.0717 26.91ZM70.4717 36.202L70.261 36.0675L70.26 36.0691L70.4717 36.202ZM64.2617 43.562L64.4242 43.752L64.4257 43.7508L64.2617 43.562ZM54.6937 44.896L54.499 45.0529L54.5017 45.056L54.6937 44.896ZM53.3137 40.664L53.5637 40.6595L53.5505 39.9184L53.1121 40.5162L53.3137 40.664ZM49.0357 44.988L48.8932 44.7826L48.8932 44.7826L49.0357 44.988ZM41.0777 44.85L40.8889 45.014L40.8937 45.0192L41.0777 44.85ZM39.5597 40.342C39.8097 40.3475 39.8097 40.3475 39.8097 40.3475C39.8097 40.3474 39.8097 40.3474 39.8097 40.3473C39.8097 40.3472 39.8097 40.3471 39.8097 40.347C39.8097 40.3469 39.8097 40.3468 39.8097 40.3466C39.8097 40.3465 39.8097 40.3463 39.8097 40.3461C39.8097 40.3459 39.8097 40.3457 39.8097 40.3455C39.8097 40.3453 39.8097 40.3451 39.8097 40.3448C39.8097 40.3445 39.8097 40.3443 39.8098 40.344C39.8098 40.34 39.8097 40.3441 39.8099 40.3395C39.8099 40.3381 39.8099 40.3353 39.81 40.3333C39.8101 40.3297 39.81 40.3332 39.8101 40.3295C39.8102 40.3243 39.81 40.3306 39.8102 40.3253C39.8102 40.3245 39.8102 40.3238 39.8102 40.323C39.8102 40.3222 39.8103 40.3214 39.8103 40.3206C39.8103 40.3198 39.8103 40.3189 39.8103 40.3181C39.8103 40.3172 39.8104 40.3164 39.8104 40.3155C39.8106 40.3053 39.8107 40.3031 39.8109 40.2906C39.811 40.2894 39.811 40.2882 39.811 40.2869C39.811 40.2857 39.8111 40.2845 39.8111 40.2832C39.8111 40.282 39.8111 40.2807 39.8112 40.2794C39.8112 40.2781 39.8112 40.2768 39.8113 40.2754C39.8115 40.2645 39.8114 40.27 39.8116 40.2585C39.8117 40.257 39.8117 40.2555 39.8117 40.254C39.8118 40.2525 39.8118 40.251 39.8118 40.2494C39.8119 40.2478 39.8119 40.2463 39.8119 40.2447C39.812 40.2431 39.812 40.2415 39.8121 40.2398C39.8121 40.2382 39.8121 40.2365 39.8122 40.2349C39.8122 40.2332 39.8122 40.2315 39.8123 40.2298C39.8123 40.2281 39.8123 40.2264 39.8124 40.2246C39.8124 40.2229 39.8125 40.2211 39.8125 40.2194C39.8127 40.2085 39.8132 40.1863 39.8135 40.1731C39.8136 40.171 39.8136 40.1689 39.8137 40.1668C39.8137 40.1647 39.8138 40.1625 39.8138 40.1604C39.8139 40.1582 39.8139 40.1561 39.8139 40.1539C39.814 40.1517 39.814 40.1495 39.8141 40.1473C39.8143 40.137 39.8145 40.1306 39.8147 40.1197C39.8148 40.1173 39.8148 40.1149 39.8149 40.1125C39.8149 40.1101 39.815 40.1077 39.815 40.1052C39.8151 40.1028 39.8151 40.1003 39.8152 40.0978C39.8152 40.0953 39.8153 40.0928 39.8154 40.0903C39.8154 40.0878 39.8155 40.0852 39.8155 40.0827C39.8156 40.0801 39.8156 40.0775 39.8157 40.075C39.8157 40.0724 39.8158 40.0697 39.8159 40.0671C39.8159 40.0645 39.816 40.0618 39.816 40.0592C39.8162 40.051 39.8173 40.002 39.8175 39.9915C39.8176 39.9885 39.8177 39.9856 39.8177 39.9826C39.8178 39.9796 39.8179 39.9765 39.8179 39.9735C39.818 39.9704 39.8181 39.9674 39.8181 39.9643C39.8182 39.9612 39.8183 39.9581 39.8183 39.955C39.8186 39.9441 39.8189 39.9283 39.8192 39.9168C39.8193 39.9135 39.8193 39.9102 39.8194 39.9069C39.8195 39.9036 39.8195 39.9003 39.8196 39.8969C39.8199 39.8862 39.8198 39.8875 39.8201 39.8767C39.8201 39.8733 39.8202 39.8699 39.8203 39.8664C39.8204 39.863 39.8205 39.8595 39.8205 39.856C39.8206 39.8525 39.8207 39.849 39.8208 39.8455C39.8208 39.842 39.8209 39.8384 39.821 39.8349C39.8212 39.8237 39.8217 39.8031 39.822 39.7913C39.822 39.7876 39.8221 39.7838 39.8222 39.7801C39.8223 39.7763 39.8224 39.7726 39.8225 39.7688C39.8227 39.7574 39.8227 39.7575 39.823 39.7459C39.823 39.742 39.8231 39.7381 39.8232 39.7342C39.8233 39.7303 39.8234 39.7264 39.8235 39.7225C39.8236 39.7186 39.8236 39.7146 39.8237 39.7107C39.8238 39.7067 39.8239 39.7027 39.824 39.6987C39.8243 39.6861 39.8248 39.663 39.8251 39.6497C39.8252 39.6456 39.8253 39.6414 39.8254 39.6372C39.8255 39.633 39.8255 39.6288 39.8256 39.6246C39.8259 39.6134 39.826 39.6104 39.8262 39.599C39.8263 39.5947 39.8264 39.5904 39.8265 39.5861C39.8266 39.5817 39.8267 39.5774 39.8268 39.573C39.8269 39.5686 39.827 39.5642 39.8271 39.5598C39.8272 39.5554 39.8273 39.551 39.8274 39.5465C39.8276 39.5374 39.8283 39.502 39.8286 39.4922C39.8287 39.4876 39.8288 39.483 39.8289 39.4784C39.829 39.4737 39.8291 39.4691 39.8292 39.4644C39.8294 39.4536 39.8296 39.447 39.8298 39.4361C39.8299 39.4314 39.83 39.4266 39.8301 39.4218C39.8302 39.4171 39.8303 39.4123 39.8304 39.4074C39.8305 39.4026 39.8306 39.3978 39.8308 39.3929C39.8309 39.3881 39.831 39.3832 39.8311 39.3783C39.8313 39.3682 39.8322 39.3294 39.8324 39.3187C39.8325 39.3136 39.8326 39.3086 39.8327 39.3035C39.8328 39.2984 39.833 39.2933 39.8331 39.2882C39.8333 39.2773 39.8335 39.2683 39.8337 39.2573C39.8339 39.2521 39.834 39.2468 39.8341 39.2416C39.8342 39.2364 39.8343 39.2311 39.8344 39.2259C39.8346 39.2206 39.8347 39.2153 39.8348 39.21C39.8349 39.2047 39.835 39.1994 39.8351 39.1941C39.8354 39.183 39.8363 39.1407 39.8366 39.1291C39.8367 39.1236 39.8368 39.1181 39.8369 39.1126C39.8371 39.107 39.8372 39.1015 39.8373 39.0959C39.8375 39.0851 39.8378 39.0733 39.8381 39.0623C39.8382 39.0567 39.8383 39.051 39.8384 39.0454C39.8386 39.0397 39.8387 39.034 39.8388 39.0283C39.8389 39.0226 39.8391 39.0169 39.8392 39.0111C39.8393 39.0054 39.8394 38.9996 39.8396 38.9938C39.8398 38.9839 39.8409 38.934 39.8411 38.9235C39.8413 38.9176 39.8414 38.9116 39.8415 38.9056C39.8416 38.8997 39.8418 38.8937 39.8419 38.8877C39.8422 38.876 39.8424 38.8632 39.8427 38.8514C39.8428 38.8453 39.843 38.8392 39.8431 38.8331C39.8433 38.827 39.8434 38.8208 39.8435 38.8147C39.8437 38.8085 39.8438 38.8024 39.8439 38.7962C39.8441 38.79 39.8442 38.7838 39.8443 38.7775C39.8446 38.7669 39.8458 38.7131 39.846 38.7019C39.8462 38.6955 39.8463 38.6891 39.8464 38.6827C39.8466 38.6763 39.8467 38.6698 39.8469 38.6634C39.8471 38.652 39.8475 38.636 39.8477 38.6245C39.8479 38.6179 39.848 38.6114 39.8482 38.6048C39.8483 38.5983 39.8484 38.5917 39.8486 38.5851C39.8487 38.5785 39.8489 38.5718 39.849 38.5652C39.8492 38.5586 39.8493 38.5519 39.8495 38.5452C39.8497 38.5338 39.851 38.4763 39.8513 38.4642C39.8514 38.4574 39.8516 38.4506 39.8517 38.4437C39.8519 38.4369 39.852 38.43 39.8522 38.4231C39.8524 38.4109 39.8528 38.3938 39.8531 38.3815C39.8532 38.3745 39.8534 38.3675 39.8536 38.3605C39.8537 38.3535 39.8539 38.3465 39.854 38.3394C39.8542 38.3324 39.8543 38.3253 39.8545 38.3182C39.8546 38.3111 39.8548 38.304 39.855 38.2969C39.8552 38.2847 39.8566 38.2234 39.8569 38.2106C39.857 38.2033 39.8572 38.196 39.8573 38.1887C39.8575 38.1814 39.8577 38.1741 39.8578 38.1668C39.8581 38.1551 39.8585 38.1343 39.8588 38.1225C39.859 38.1151 39.8591 38.1076 39.8593 38.1002C39.8595 38.0927 39.8596 38.0852 39.8598 38.0778C39.86 38.0703 39.8601 38.0628 39.8603 38.0552C39.8605 38.0477 39.8606 38.0402 39.8608 38.0326C39.8611 38.0168 39.8625 37.9573 39.8628 37.9409C39.863 37.9332 39.8632 37.9255 39.8633 37.9177C39.8635 37.91 39.8637 37.9022 39.8638 37.8944C39.864 37.8862 39.8647 37.8558 39.8649 37.8475C39.8649 37.8468 39.8659 37.8008 39.8659 37.8001C39.8661 37.7921 39.8663 37.7842 39.8665 37.7762C39.8666 37.7682 39.8668 37.7602 39.867 37.7522C39.8672 37.7438 39.8679 37.7125 39.868 37.704C39.8682 37.6959 39.8684 37.6878 39.8686 37.6796C39.8688 37.6715 39.8689 37.6634 39.8691 37.6552C39.8693 37.6471 39.8695 37.6389 39.8697 37.6307C39.8698 37.6225 39.87 37.6143 39.8702 37.6061C39.8704 37.5974 39.8711 37.5652 39.8713 37.5564C39.8715 37.5481 39.8717 37.5398 39.8719 37.5315C39.872 37.5231 39.8722 37.5148 39.8724 37.5064C39.8726 37.498 39.8728 37.4896 39.873 37.4812C39.8732 37.4728 39.8733 37.4643 39.8735 37.4559C39.8737 37.447 39.8745 37.4139 39.8747 37.4049C39.8747 37.4042 39.8758 37.3543 39.8758 37.3535C39.876 37.3449 39.8762 37.3363 39.8764 37.3276C39.8765 37.319 39.8767 37.3103 39.8769 37.3017C39.8771 37.2925 39.8779 37.2587 39.8781 37.2494C39.8781 37.2487 39.8792 37.1975 39.8793 37.1966C39.8794 37.1878 39.8796 37.179 39.8798 37.1701C39.88 37.1612 39.8802 37.1524 39.8804 37.1435C39.8806 37.1341 39.8814 37.0994 39.8816 37.0898C39.8816 37.0891 39.8828 37.0366 39.8828 37.0358C39.883 37.0267 39.8832 37.0177 39.8834 37.0086C39.8836 36.9995 39.8838 36.9904 39.884 36.9813C39.8842 36.9717 39.885 36.9361 39.8852 36.9263C39.8852 36.9256 39.8864 36.8718 39.8864 36.8709C39.8866 36.8616 39.8869 36.8523 39.8871 36.843C39.8873 36.8337 39.8875 36.8244 39.8877 36.8151C39.8879 36.8052 39.8887 36.7687 39.8889 36.7588C39.8889 36.758 39.8902 36.7029 39.8902 36.702C39.8904 36.6925 39.8906 36.683 39.8908 36.6735C39.891 36.664 39.8912 36.6544 39.8914 36.6448C39.8917 36.6348 39.8925 36.5974 39.8927 36.5872C39.8927 36.5864 39.894 36.5301 39.894 36.5291C39.8942 36.5194 39.8944 36.5097 39.8946 36.4999C39.8949 36.4902 39.8951 36.4804 39.8953 36.4706C39.8954 36.4638 39.8964 36.4186 39.8966 36.4117C39.8966 36.4109 39.8979 36.3532 39.8979 36.3522C39.8981 36.3423 39.8983 36.3323 39.8986 36.3224C39.8988 36.3124 39.899 36.3024 39.8992 36.2924C39.8994 36.2854 39.9004 36.2392 39.9006 36.2321C39.9008 36.222 39.901 36.2119 39.9012 36.2018C39.9014 36.1917 39.9017 36.1815 39.9019 36.1713C39.9021 36.1612 39.9023 36.151 39.9026 36.1408C39.9028 36.1306 39.903 36.1204 39.9032 36.1102C39.9034 36.103 39.9044 36.0558 39.9046 36.0485C39.9048 36.0382 39.9051 36.0279 39.9053 36.0175C39.9055 36.0072 39.9057 35.9968 39.906 35.9864C39.9062 35.9761 39.9064 35.9657 39.9067 35.9552C39.9069 35.9448 39.9071 35.9344 39.9074 35.9239C39.9075 35.9166 39.9086 35.8684 39.9087 35.861C39.909 35.8504 39.9092 35.8399 39.9094 35.8293C39.9097 35.8187 39.9099 35.8081 39.9101 35.7975C39.9104 35.7869 39.9106 35.7763 39.9109 35.7657C39.9111 35.755 39.9113 35.7444 39.9116 35.7337C39.9117 35.7262 39.9128 35.677 39.913 35.6694C39.9132 35.6586 39.9135 35.6479 39.9137 35.6371C39.9139 35.6263 39.9142 35.6155 39.9144 35.6046C39.9146 35.5938 39.9149 35.583 39.9151 35.5721C39.9154 35.5612 39.9156 35.5503 39.9158 35.5394C39.916 35.5318 39.9171 35.4816 39.9173 35.4738C39.9175 35.4628 39.9178 35.4518 39.918 35.4408C39.9183 35.4298 39.9185 35.4188 39.9188 35.4077C39.919 35.3967 39.9192 35.3856 39.9195 35.3745C39.9197 35.3634 39.92 35.3523 39.9202 35.3412C39.9204 35.3334 39.9215 35.2821 39.9217 35.2742C39.9219 35.263 39.9222 35.2518 39.9224 35.2406C39.9227 35.2293 39.9229 35.2181 39.9232 35.2068C39.9234 35.1955 39.9237 35.1842 39.9239 35.1729C39.9242 35.1616 39.9244 35.1503 39.9247 35.1389C39.9249 35.131 39.926 35.0787 39.9262 35.0706C39.9265 35.0592 39.9267 35.0478 39.927 35.0363C39.9272 35.0248 39.9275 35.0134 39.9277 35.0019C39.928 34.9904 39.9282 34.9789 39.9285 34.9673C39.9287 34.9558 39.929 34.9442 39.9292 34.9327C39.9294 34.9246 39.9306 34.8713 39.9308 34.863C39.931 34.8514 39.9313 34.8397 39.9316 34.828C39.9318 34.8164 39.9321 34.8047 39.9323 34.7929C39.9326 34.7812 39.9328 34.7695 39.9331 34.7577C39.9334 34.746 39.9336 34.7342 39.9339 34.7224C39.9341 34.7142 39.9353 34.6598 39.9355 34.6514C39.9357 34.6396 39.936 34.6277 39.9362 34.6158C39.9365 34.6039 39.9368 34.5919 39.937 34.58C39.9373 34.5681 39.9376 34.5561 39.9378 34.5441C39.9381 34.5321 39.9384 34.5201 39.9386 34.5081C39.9388 34.4997 39.94 34.4444 39.9402 34.4358C39.9405 34.4237 39.9408 34.4116 39.941 34.3995C39.9413 34.3874 39.9416 34.3752 39.9418 34.3631C39.9421 34.3509 39.9424 34.3387 39.9426 34.3265C39.9429 34.3143 39.9432 34.3021 39.9434 34.2899C39.9436 34.2813 39.9449 34.2249 39.9451 34.2162C39.9453 34.2039 39.9456 34.1916 39.9459 34.1792C39.9462 34.1669 39.9464 34.1545 39.9467 34.1421C39.947 34.1297 39.9472 34.1173 39.9475 34.1049C39.9478 34.0925 39.9481 34.08 39.9483 34.0676C39.9485 34.0589 39.9498 34.0014 39.95 33.9926C39.9503 33.9801 39.9506 33.9675 39.9508 33.9549C39.9511 33.9424 39.9514 33.9298 39.9517 33.9172C39.9519 33.9046 39.9522 33.8919 39.9525 33.8793C39.9528 33.8666 39.9531 33.854 39.9533 33.8413C39.9535 33.8324 39.9548 33.774 39.955 33.765C39.9553 33.7522 39.9556 33.7394 39.9559 33.7266C39.9562 33.7138 39.9564 33.701 39.9567 33.6882C39.957 33.6754 39.9573 33.6625 39.9576 33.6497C39.9579 33.6368 39.9581 33.6239 39.9584 33.611C39.9586 33.602 39.9599 33.5425 39.9601 33.5333C39.9604 33.5204 39.9607 33.5074 39.961 33.4944C39.9613 33.4813 39.9616 33.4683 39.9619 33.4552C39.9622 33.4422 39.9624 33.4291 39.9627 33.416C39.963 33.4029 39.9633 33.3898 39.9636 33.3767C39.9638 33.3675 39.9651 33.307 39.9653 33.2977C39.9656 33.2845 39.9659 33.2713 39.9662 33.2581C39.9665 33.2448 39.9668 33.2316 39.9671 33.2183C39.9674 33.205 39.9677 33.1917 39.968 33.1784C39.9683 33.1651 39.9686 33.1518 39.9689 33.1384C39.9691 33.1291 39.9704 33.0676 39.9706 33.0581C39.9709 33.0447 39.9712 33.0312 39.9715 33.0177C39.9718 33.0043 39.9721 32.9908 39.9724 32.9773C39.9727 32.9638 39.973 32.9503 39.9733 32.9368C39.9736 32.9232 39.9739 32.9097 39.9742 32.8961C39.9744 32.8866 39.9758 32.8241 39.976 32.8144C39.9763 32.8008 39.9766 32.7871 39.9769 32.7734C39.9772 32.7598 39.9775 32.7461 39.9778 32.7323C39.9781 32.7186 39.9784 32.7049 39.9787 32.6911C39.979 32.6774 39.9794 32.6636 39.9797 32.6498C39.9799 32.6401 39.9813 32.5766 39.9815 32.5668C39.9818 32.5529 39.9821 32.539 39.9824 32.5251C39.9827 32.5112 39.983 32.4973 39.9833 32.4833C39.9836 32.4694 39.9839 32.4554 39.9843 32.4415C39.9846 32.4275 39.9849 32.4135 39.9852 32.3995C39.9854 32.3897 39.9868 32.3251 39.987 32.3151C39.9874 32.301 39.9877 32.2869 39.988 32.2728C39.9883 32.2587 39.9886 32.2445 39.9889 32.2304C39.9892 32.2162 39.9895 32.202 39.9899 32.1878C39.9902 32.1736 39.9905 32.1594 39.9908 32.1451C39.991 32.1352 39.9925 32.0696 39.9927 32.0595C39.993 32.0452 39.9933 32.0308 39.9936 32.0165C39.994 32.0021 39.9943 31.9878 39.9946 31.9734C39.9949 31.959 39.9952 31.9446 39.9955 31.9301C39.9959 31.9157 39.9962 31.9013 39.9965 31.8868C39.9967 31.8767 39.9982 31.8101 39.9984 31.7998C39.9987 31.7853 39.9991 31.7707 39.9994 31.7562C39.9997 31.7416 40 31.727 40.0004 31.7124C40.0007 31.6978 40.001 31.6831 40.0013 31.6685C40.0016 31.6538 40.002 31.6392 40.0023 31.6245C40.0025 31.6142 40.004 31.5466 40.0042 31.5362C40.0046 31.5214 40.0049 31.5066 40.0052 31.4918C40.0056 31.477 40.0059 31.4622 40.0062 31.4474C40.0065 31.4325 40.0069 31.4177 40.0072 31.4028C40.0075 31.3879 40.0078 31.3731 40.0082 31.3581C40.0084 31.3477 40.0099 31.2791 40.0102 31.2685C40.0105 31.2535 40.0108 31.2385 40.0112 31.2235C40.0115 31.2085 40.0118 31.1934 40.0121 31.1784C40.0125 31.1633 40.0128 31.1482 40.0131 31.1331C40.0135 31.118 40.0138 31.1029 40.0141 31.0878C40.0145 31.0727 40.0148 31.0575 40.0152 31.0424C40.0155 31.0272 40.0158 31.012 40.0162 30.9968C40.0165 30.9816 40.0168 30.9664 40.0172 30.9511C40.0175 30.9359 40.0178 30.9206 40.0182 30.9054C40.0185 30.8901 40.0189 30.8748 40.0192 30.8595C40.0195 30.8441 40.0199 30.8288 40.0202 30.8135C40.0205 30.7981 40.0209 30.7827 40.0212 30.7673C40.0216 30.752 40.0219 30.7365 40.0222 30.7211C40.0226 30.7057 40.0229 30.6902 40.0233 30.6748C40.0236 30.6593 40.024 30.6438 40.0243 30.6283C40.0246 30.6128 40.025 30.5973 40.0253 30.5818C40.0257 30.5662 40.026 30.5507 40.0264 30.5351C40.0267 30.5195 40.027 30.5039 40.0274 30.4883C40.0277 30.4727 40.0281 30.4571 40.0284 30.4414C40.0288 30.4258 40.0291 30.4101 40.0295 30.3944C40.0298 30.3787 40.0302 30.363 40.0305 30.3473C40.0308 30.3316 40.0312 30.3158 40.0315 30.3001C40.0319 30.2843 40.0322 30.2685 40.0326 30.2527C40.0329 30.237 40.0333 30.2211 40.0336 30.2053C40.034 30.1895 40.0343 30.1736 40.0347 30.1577C40.035 30.1419 40.0354 30.126 40.0357 30.1101C40.0361 30.0942 40.0364 30.0782 40.0368 30.0623C40.0371 30.0463 40.0375 30.0304 40.0378 30.0144C40.0382 29.9984 40.0386 29.9824 40.0389 29.9664C40.0393 29.9504 40.0396 29.9343 40.04 29.9183C40.0403 29.9022 40.0407 29.8861 40.041 29.87C40.0414 29.8539 40.0417 29.8378 40.0421 29.8217C40.0425 29.8056 40.0428 29.7894 40.0432 29.7733C40.0435 29.7571 40.0439 29.7409 40.0442 29.7247C40.0446 29.7085 40.045 29.6923 40.0453 29.676C40.0457 29.6598 40.046 29.6435 40.0464 29.6272C40.0468 29.611 40.0471 29.5947 40.0475 29.5783C40.0478 29.562 40.0482 29.5457 40.0486 29.5293C40.0489 29.513 40.0493 29.4966 40.0496 29.4802C40.05 29.4638 40.0504 29.4474 40.0507 29.431C40.0511 29.4146 40.0515 29.3981 40.0518 29.3816C40.0522 29.3652 40.0525 29.3487 40.0529 29.3322C40.0533 29.3157 40.0536 29.2992 40.054 29.2826C40.0544 29.2661 40.0547 29.2495 40.0551 29.233C40.0555 29.2164 40.0558 29.1998 40.0562 29.1832C40.0566 29.1666 40.0569 29.1499 40.0573 29.1333C40.0577 29.1166 40.058 29.1 40.0584 29.0833C40.0588 29.0666 40.0591 29.0499 40.0595 29.0332C40.0599 29.0164 40.0603 28.9997 40.0606 28.9829C40.061 28.9662 40.0614 28.9494 40.0617 28.9326C40.0621 28.9158 40.0625 28.899 40.0629 28.8821C40.0632 28.8653 40.0636 28.8484 40.064 28.8316C40.0643 28.8147 40.0647 28.7978 40.0651 28.7809C40.0655 28.764 40.0658 28.747 40.0662 28.7301C40.0666 28.7132 40.067 28.6962 40.0673 28.6792C40.0677 28.6622 40.0681 28.6452 40.0685 28.6282C40.0688 28.6112 40.0692 28.5941 40.0696 28.5771C40.07 28.56 40.0703 28.5429 40.0707 28.5258C40.0711 28.5087 40.0715 28.4916 40.0719 28.4745C40.0722 28.4574 40.0726 28.4402 40.073 28.423C40.0734 28.4059 40.0737 28.3887 40.0741 28.3715C40.0745 28.3543 40.0749 28.337 40.0753 28.3198C40.0757 28.3026 40.076 28.2853 40.0764 28.268C40.0768 28.2507 40.0772 28.2334 40.0776 28.2161C40.0779 28.1988 40.0783 28.1815 40.0787 28.1641C40.0791 28.1468 40.0795 28.1294 40.0799 28.112C40.0802 28.0946 40.0806 28.0772 40.081 28.0598C40.0814 28.0423 40.0818 28.0249 40.0822 28.0074C40.0826 27.9899 40.0829 27.9725 40.0833 27.955C40.0837 27.9375 40.0841 27.9199 40.0845 27.9024C40.0849 27.8848 40.0853 27.8673 40.0857 27.8497C40.086 27.8321 40.0864 27.8145 40.0868 27.7969C40.0872 27.7793 40.0876 27.7617 40.088 27.744C40.0884 27.7264 40.0888 27.7087 40.0892 27.691C40.0895 27.6733 40.0899 27.6556 40.0903 27.6379C40.0907 27.6202 40.0911 27.6024 40.0915 27.5847C40.0919 27.5669 40.0923 27.5491 40.0927 27.5313C40.0931 27.5135 40.0935 27.4957 40.0939 27.4779C40.0943 27.46 40.0947 27.4422 40.095 27.4243C40.0954 27.4064 40.0958 27.3885 40.0962 27.3706C40.0966 27.3527 40.097 27.3348 40.0974 27.3168C40.0978 27.2989 40.0982 27.2809 40.0986 27.2629C40.099 27.2449 40.0994 27.2269 40.0998 27.2089C40.1002 27.1909 40.1006 27.1728 40.101 27.1548C40.1014 27.1367 40.1018 27.1186 40.1022 27.1005C40.1026 27.0824 40.103 27.0643 40.1034 27.0462C40.1038 27.0281 40.1042 27.0099 40.1046 26.9917C40.105 26.9736 40.1054 26.9554 40.1058 26.9372C40.1062 26.919 40.1066 26.9007 40.107 26.8825C40.1074 26.8642 40.1078 26.846 40.1082 26.8277C40.1086 26.8094 40.109 26.7911 40.1094 26.7728C40.1098 26.7545 40.1102 26.7361 40.1106 26.7178C40.1111 26.6994 40.1115 26.681 40.1119 26.6627C40.1123 26.6443 40.1127 26.6258 40.1131 26.6074C40.1135 26.589 40.1139 26.5705 40.1143 26.5521C40.1147 26.5336 40.1151 26.5151 40.1155 26.4966C40.1159 26.4781 40.1163 26.4596 40.1168 26.441C40.1172 26.4225 40.1176 26.4039 40.118 26.3854C40.1184 26.3668 40.1188 26.3482 40.1192 26.3296C40.1196 26.3109 40.12 26.2923 40.1205 26.2737C40.1209 26.255 40.1213 26.2363 40.1217 26.2176C40.1221 26.199 40.1225 26.1802 40.1229 26.1615C40.1233 26.1428 40.1238 26.124 40.1242 26.1053C40.1246 26.0865 40.125 26.0677 40.1254 26.0489C40.1258 26.0301 40.1262 26.0113 40.1267 25.9925C40.1271 25.9736 40.1275 25.9548 40.1279 25.9359C40.1283 25.917 40.1287 25.8981 40.1292 25.8792C40.1296 25.8603 40.13 25.8414 40.1304 25.8224C40.1308 25.8035 40.1313 25.7845 40.1317 25.7655L39.6318 25.7545C39.6314 25.7735 39.631 25.7924 39.6305 25.8114C39.6301 25.8303 39.6297 25.8493 39.6293 25.8682C39.6289 25.8871 39.6284 25.906 39.628 25.9249C39.6276 25.9437 39.6272 25.9626 39.6268 25.9814C39.6264 26.0003 39.626 26.0191 39.6255 26.0379C39.6251 26.0567 39.6247 26.0755 39.6243 26.0942C39.6239 26.113 39.6235 26.1318 39.6231 26.1505C39.6226 26.1692 39.6222 26.1879 39.6218 26.2066C39.6214 26.2253 39.621 26.244 39.6206 26.2626C39.6202 26.2813 39.6198 26.2999 39.6193 26.3185C39.6189 26.3371 39.6185 26.3557 39.6181 26.3743C39.6177 26.3929 39.6173 26.4115 39.6169 26.43C39.6165 26.4485 39.6161 26.4671 39.6157 26.4856C39.6152 26.5041 39.6148 26.5226 39.6144 26.541C39.614 26.5595 39.6136 26.5779 39.6132 26.5964C39.6128 26.6148 39.6124 26.6332 39.612 26.6516C39.6116 26.67 39.6112 26.6884 39.6108 26.7067C39.6104 26.7251 39.61 26.7434 39.6096 26.7618C39.6091 26.7801 39.6087 26.7984 39.6083 26.8167C39.6079 26.8349 39.6075 26.8532 39.6071 26.8714C39.6067 26.8897 39.6063 26.9079 39.6059 26.9261C39.6055 26.9443 39.6051 26.9625 39.6047 26.9807C39.6043 26.9989 39.6039 27.017 39.6035 27.0352C39.6031 27.0533 39.6027 27.0714 39.6023 27.0895C39.6019 27.1076 39.6015 27.1257 39.6011 27.1437C39.6007 27.1618 39.6003 27.1798 39.5999 27.1979C39.5995 27.2159 39.5991 27.2339 39.5987 27.2519C39.5983 27.2699 39.5979 27.2878 39.5975 27.3058C39.5971 27.3237 39.5967 27.3417 39.5964 27.3596C39.596 27.3775 39.5956 27.3954 39.5952 27.4132C39.5948 27.4311 39.5944 27.449 39.594 27.4668C39.5936 27.4846 39.5932 27.5025 39.5928 27.5203C39.5924 27.5381 39.592 27.5559 39.5916 27.5736C39.5912 27.5914 39.5908 27.6091 39.5904 27.6268C39.5901 27.6446 39.5897 27.6623 39.5893 27.68C39.5889 27.6977 39.5885 27.7153 39.5881 27.733C39.5877 27.7506 39.5873 27.7683 39.5869 27.7859C39.5865 27.8035 39.5862 27.8211 39.5858 27.8387C39.5854 27.8562 39.585 27.8738 39.5846 27.8913C39.5842 27.9089 39.5838 27.9264 39.5834 27.9439C39.5831 27.9614 39.5827 27.9789 39.5823 27.9964C39.5819 28.0138 39.5815 28.0313 39.5811 28.0487C39.5807 28.0661 39.5804 28.0836 39.58 28.1009C39.5796 28.1183 39.5792 28.1357 39.5788 28.1531C39.5784 28.1704 39.5781 28.1878 39.5777 28.2051C39.5773 28.2224 39.5769 28.2397 39.5765 28.257C39.5762 28.2743 39.5758 28.2915 39.5754 28.3088C39.575 28.326 39.5746 28.3432 39.5743 28.3604C39.5739 28.3776 39.5735 28.3948 39.5731 28.412C39.5727 28.4292 39.5724 28.4463 39.572 28.4635C39.5716 28.4806 39.5712 28.4977 39.5708 28.5148C39.5705 28.5319 39.5701 28.549 39.5697 28.566C39.5693 28.5831 39.569 28.6001 39.5686 28.6172C39.5682 28.6342 39.5678 28.6512 39.5675 28.6682C39.5671 28.6851 39.5667 28.7021 39.5663 28.7191C39.566 28.736 39.5656 28.7529 39.5652 28.7698C39.5648 28.7868 39.5645 28.8037 39.5641 28.8205C39.5637 28.8374 39.5633 28.8543 39.563 28.8711C39.5626 28.8879 39.5622 28.9047 39.5619 28.9215C39.5615 28.9383 39.5611 28.9551 39.5607 28.9719C39.5604 28.9886 39.56 29.0054 39.5596 29.0221C39.5593 29.0388 39.5589 29.0555 39.5585 29.0722C39.5582 29.0889 39.5578 29.1056 39.5574 29.1222C39.5571 29.1389 39.5567 29.1555 39.5563 29.1721C39.556 29.1887 39.5556 29.2053 39.5552 29.2219C39.5549 29.2385 39.5545 29.2551 39.5541 29.2716C39.5538 29.2881 39.5534 29.3047 39.553 29.3212C39.5527 29.3377 39.5523 29.3541 39.5519 29.3706C39.5516 29.3871 39.5512 29.4035 39.5509 29.4199C39.5505 29.4364 39.5501 29.4528 39.5498 29.4692C39.5494 29.4856 39.549 29.5019 39.5487 29.5183C39.5483 29.5347 39.548 29.551 39.5476 29.5673C39.5472 29.5836 39.5469 29.5999 39.5465 29.6162C39.5462 29.6325 39.5458 29.6487 39.5454 29.665C39.5451 29.6812 39.5447 29.6974 39.5444 29.7137C39.544 29.7299 39.5437 29.746 39.5433 29.7622C39.5429 29.7784 39.5426 29.7945 39.5422 29.8107C39.5419 29.8268 39.5415 29.8429 39.5412 29.859C39.5408 29.8751 39.5404 29.8912 39.5401 29.9072C39.5397 29.9233 39.5394 29.9393 39.539 29.9553C39.5387 29.9714 39.5383 29.9874 39.538 30.0034C39.5376 30.0193 39.5373 30.0353 39.5369 30.0512C39.5366 30.0672 39.5362 30.0831 39.5359 30.099C39.5355 30.1149 39.5352 30.1308 39.5348 30.1467C39.5345 30.1626 39.5341 30.1784 39.5338 30.1943C39.5334 30.2101 39.5331 30.2259 39.5327 30.2417C39.5323 30.2585 39.531 30.3196 39.5306 30.3363C39.5303 30.352 39.5299 30.3677 39.5296 30.3834C39.5292 30.3991 39.5289 30.4147 39.5285 30.4304C39.5282 30.446 39.5279 30.4617 39.5275 30.4773C39.5272 30.4929 39.5268 30.5085 39.5265 30.5241C39.5261 30.5406 39.5248 30.6009 39.5244 30.6173C39.5241 30.6328 39.5237 30.6483 39.5234 30.6637C39.523 30.6792 39.5227 30.6947 39.5224 30.7101C39.522 30.7255 39.5217 30.7409 39.5213 30.7563C39.521 30.7717 39.5207 30.7871 39.5203 30.8024C39.52 30.8188 39.5187 30.8781 39.5183 30.8943C39.518 30.9096 39.5176 30.9249 39.5173 30.9401C39.517 30.9553 39.5166 30.9706 39.5163 30.9858C39.5159 31.001 39.5156 31.0162 39.5153 31.0313C39.5149 31.0465 39.5146 31.0616 39.5143 31.0768C39.5139 31.0929 39.5126 31.1514 39.5123 31.1673C39.5119 31.1824 39.5116 31.1974 39.5113 31.2124C39.5109 31.2275 39.5106 31.2425 39.5103 31.2574C39.5099 31.2724 39.5096 31.2874 39.5093 31.3023C39.509 31.3173 39.5086 31.3322 39.5083 31.3471C39.5079 31.363 39.5067 31.4206 39.5063 31.4363C39.506 31.4512 39.5057 31.466 39.5053 31.4808C39.505 31.4956 39.5047 31.5104 39.5044 31.5251C39.504 31.5399 39.5037 31.5546 39.5034 31.5693C39.5031 31.5841 39.5027 31.5988 39.5024 31.6134C39.5021 31.6291 39.5008 31.6858 39.5005 31.7013C39.5002 31.7159 39.4998 31.7305 39.4995 31.7451C39.4992 31.7597 39.4989 31.7742 39.4985 31.7888C39.4982 31.8033 39.4979 31.8178 39.4976 31.8323C39.4973 31.8468 39.4969 31.8613 39.4966 31.8758C39.4963 31.8912 39.4951 31.9471 39.4947 31.9623C39.4944 31.9767 39.4941 31.9911 39.4938 32.0054C39.4934 32.0198 39.4931 32.0341 39.4928 32.0484C39.4925 32.0628 39.4922 32.0771 39.4919 32.0913C39.4915 32.1056 39.4912 32.1199 39.4909 32.1341C39.4906 32.1493 39.4894 32.2043 39.489 32.2193C39.4887 32.2335 39.4884 32.2476 39.4881 32.2618C39.4878 32.2759 39.4875 32.29 39.4872 32.3041C39.4869 32.3182 39.4865 32.3323 39.4862 32.3463C39.4859 32.3604 39.4856 32.3744 39.4853 32.3884C39.485 32.4034 39.4838 32.4575 39.4835 32.4723C39.4831 32.4863 39.4828 32.5002 39.4825 32.5141C39.4822 32.528 39.4819 32.5419 39.4816 32.5557C39.4813 32.5696 39.481 32.5835 39.4807 32.5973C39.4804 32.6111 39.4801 32.6249 39.4798 32.6387C39.4795 32.6534 39.4783 32.7067 39.478 32.7213C39.4777 32.735 39.4773 32.7487 39.477 32.7624C39.4767 32.7761 39.4764 32.7897 39.4761 32.8034C39.4758 32.817 39.4755 32.8307 39.4752 32.8443C39.4749 32.8579 39.4746 32.8715 39.4743 32.8851C39.474 32.8995 39.4729 32.952 39.4725 32.9663C39.4722 32.9798 39.4719 32.9932 39.4717 33.0067C39.4714 33.0202 39.4711 33.0336 39.4708 33.047C39.4705 33.0605 39.4702 33.0739 39.4699 33.0873C39.4696 33.1006 39.4693 33.114 39.469 33.1274C39.4687 33.1416 39.4675 33.1932 39.4672 33.2072C39.4669 33.2205 39.4666 33.2338 39.4663 33.247C39.4661 33.2603 39.4658 33.2735 39.4655 33.2867C39.4652 33.2999 39.4649 33.3131 39.4646 33.3262C39.4643 33.3394 39.464 33.3525 39.4637 33.3657C39.4634 33.3796 39.4623 33.4304 39.462 33.4442C39.4617 33.4573 39.4614 33.4703 39.4611 33.4833C39.4608 33.4963 39.4606 33.5093 39.4603 33.5223C39.46 33.5353 39.4597 33.5482 39.4594 33.5612C39.4591 33.5741 39.4588 33.5871 39.4586 33.6C39.4582 33.6137 39.4571 33.6636 39.4568 33.6772C39.4566 33.69 39.4563 33.7028 39.456 33.7156C39.4557 33.7284 39.4554 33.7412 39.4552 33.7539C39.4549 33.7667 39.4546 33.7794 39.4543 33.7921C39.454 33.8049 39.4537 33.8176 39.4535 33.8303C39.4532 33.8438 39.4521 33.8928 39.4518 33.9061C39.4515 33.9187 39.4512 33.9313 39.451 33.9439C39.4507 33.9565 39.4504 33.969 39.4501 33.9816C39.4498 33.9941 39.4496 34.0066 39.4493 34.0191C39.449 34.0316 39.4487 34.0441 39.4485 34.0565C39.4482 34.0698 39.4471 34.1179 39.4468 34.1311C39.4465 34.1435 39.4463 34.1558 39.446 34.1682C39.4457 34.1805 39.4455 34.1929 39.4452 34.2052C39.4449 34.2175 39.4446 34.2298 39.4444 34.242C39.4441 34.2543 39.4438 34.2666 39.4436 34.2788C39.4433 34.2919 39.4422 34.3391 39.4419 34.352C39.4417 34.3642 39.4414 34.3763 39.4411 34.3885C39.4409 34.4006 39.4406 34.4127 39.4403 34.4248C39.4401 34.4369 39.4398 34.4489 39.4395 34.461C39.4393 34.473 39.439 34.4851 39.4387 34.4971C39.4385 34.5099 39.4374 34.5563 39.4372 34.569C39.4369 34.5809 39.4366 34.5928 39.4364 34.6047C39.4361 34.6166 39.4358 34.6285 39.4356 34.6404C39.4353 34.6523 39.4351 34.6641 39.4348 34.6759C39.4345 34.6878 39.4343 34.6996 39.434 34.7114C39.4337 34.7239 39.4327 34.7695 39.4325 34.7819C39.4322 34.7936 39.4319 34.8053 39.4317 34.817C39.4314 34.8287 39.4312 34.8403 39.4309 34.852C39.4306 34.8636 39.4304 34.8753 39.4301 34.8869C39.4299 34.8985 39.4296 34.9101 39.4294 34.9216C39.4291 34.934 39.4281 34.9786 39.4278 34.9908C39.4276 35.0023 39.4273 35.0138 39.4271 35.0253C39.4268 35.0367 39.4266 35.0482 39.4263 35.0596C39.4261 35.071 39.4258 35.0824 39.4256 35.0938C39.4253 35.1052 39.4251 35.1165 39.4248 35.1279C39.4245 35.14 39.4236 35.1838 39.4233 35.1958C39.4231 35.207 39.4228 35.2183 39.4226 35.2295C39.4223 35.2408 39.4221 35.252 39.4218 35.2632C39.4216 35.2744 39.4213 35.2856 39.4211 35.2967C39.4208 35.3079 39.4206 35.319 39.4203 35.3301C39.4201 35.342 39.4191 35.385 39.4189 35.3967C39.4186 35.4077 39.4184 35.4188 39.4181 35.4298C39.4179 35.4408 39.4177 35.4518 39.4174 35.4628C39.4172 35.4737 39.4169 35.4847 39.4167 35.4956C39.4164 35.5066 39.4162 35.5175 39.416 35.5284C39.4156 35.5439 39.4149 35.5783 39.4145 35.5936C39.4143 35.6044 39.4141 35.6152 39.4138 35.626C39.4136 35.6368 39.4133 35.6476 39.4131 35.6583C39.4129 35.6691 39.4126 35.6798 39.4124 35.6905C39.4122 35.7013 39.4119 35.712 39.4117 35.7226C39.4113 35.7378 39.4106 35.7715 39.4103 35.7865C39.41 35.7971 39.4098 35.8077 39.4096 35.8183C39.4093 35.8288 39.4091 35.8394 39.4089 35.8499C39.4086 35.8604 39.4084 35.871 39.4082 35.8815C39.4079 35.892 39.4077 35.9024 39.4075 35.9129C39.4072 35.9277 39.4064 35.9607 39.4061 35.9754C39.4059 35.9858 39.4056 35.9962 39.4054 36.0065C39.4052 36.0168 39.405 36.0272 39.4047 36.0375C39.4045 36.0478 39.4043 36.0581 39.404 36.0684C39.4038 36.0786 39.4036 36.0889 39.4034 36.0991C39.4029 36.1211 39.4011 36.1997 39.4007 36.2211C39.4004 36.2311 39.4002 36.2412 39.4 36.2513C39.3998 36.2613 39.3996 36.2713 39.3993 36.2814C39.399 36.2955 39.3983 36.3272 39.398 36.3412C39.3978 36.3511 39.3976 36.3611 39.3974 36.371C39.3971 36.3809 39.3969 36.3907 39.3967 36.4006C39.3965 36.4105 39.3963 36.4203 39.3961 36.4302C39.3958 36.44 39.3956 36.4498 39.3954 36.4596C39.3949 36.4806 39.3933 36.5557 39.3928 36.5762C39.3926 36.5858 39.3924 36.5954 39.3922 36.605C39.392 36.6146 39.3918 36.6242 39.3916 36.6338C39.3913 36.6474 39.3906 36.6776 39.3903 36.691C39.3901 36.7005 39.3899 36.7099 39.3897 36.7194C39.3895 36.7289 39.3893 36.7383 39.389 36.7477C39.3888 36.7571 39.3886 36.7665 39.3884 36.7759C39.3882 36.7853 39.388 36.7947 39.3878 36.804C39.3874 36.8241 39.3858 36.8958 39.3853 36.9153C39.3851 36.9245 39.3849 36.9336 39.3847 36.9428C39.3845 36.952 39.3843 36.9611 39.3841 36.9702C39.3838 36.9832 39.3832 37.0119 39.3829 37.0247C39.3827 37.0338 39.3825 37.0428 39.3823 37.0518C39.3821 37.0608 39.3819 37.0698 39.3817 37.0788C39.3815 37.0878 39.3813 37.0967 39.3811 37.1057C39.3809 37.1146 39.3807 37.1235 39.3805 37.1324C39.3801 37.1516 39.3786 37.2198 39.3782 37.2383C39.378 37.2471 39.3778 37.2558 39.3776 37.2645C39.3774 37.2733 39.3772 37.282 39.3771 37.2906C39.3768 37.3029 39.3762 37.3303 39.3759 37.3425C39.3757 37.3511 39.3755 37.3597 39.3753 37.3682C39.3752 37.3768 39.375 37.3853 39.3748 37.3939C39.3746 37.4024 39.3744 37.4109 39.3742 37.4194C39.374 37.4279 39.3738 37.4364 39.3736 37.4448C39.3732 37.463 39.3718 37.5278 39.3714 37.5454C39.3712 37.5537 39.3711 37.562 39.3709 37.5703C39.3707 37.5785 39.3705 37.5868 39.3703 37.595C39.3701 37.6067 39.3695 37.6327 39.3692 37.6442C39.3691 37.6523 39.3689 37.6605 39.3687 37.6686C39.3685 37.6767 39.3683 37.6848 39.3682 37.6929C39.368 37.701 39.3678 37.7091 39.3676 37.7171C39.3675 37.7252 39.3673 37.7332 39.3671 37.7412C39.3667 37.7585 39.3654 37.8198 39.365 37.8364C39.3648 37.8443 39.3647 37.8521 39.3645 37.86C39.3643 37.8678 39.3641 37.8756 39.364 37.8834C39.3637 37.8944 39.3632 37.919 39.3629 37.9299C39.3628 37.9376 39.3626 37.9453 39.3624 37.953C39.3623 37.9606 39.3621 37.9683 39.3619 37.9759C39.3618 37.9836 39.3616 37.9912 39.3614 37.9988C39.3612 38.0064 39.3611 38.014 39.3609 38.0216C39.3607 38.0323 39.3602 38.0561 39.3599 38.0667C39.3598 38.0742 39.3596 38.0817 39.3594 38.0891C39.3593 38.0966 39.3591 38.104 39.3589 38.1114C39.3588 38.1189 39.3586 38.1263 39.3584 38.1336C39.3583 38.141 39.3581 38.1484 39.358 38.1557C39.3577 38.1661 39.3572 38.1893 39.357 38.1996C39.357 38.1999 39.356 38.2427 39.356 38.2429C39.3559 38.2501 39.3557 38.2573 39.3555 38.2645C39.3554 38.2716 39.3552 38.2788 39.3551 38.2859C39.3548 38.2988 39.3535 38.3581 39.3532 38.3704C39.3531 38.3774 39.3529 38.3844 39.3527 38.3913C39.3526 38.3982 39.3524 38.4051 39.3523 38.412C39.3521 38.4218 39.3516 38.4436 39.3514 38.4532C39.3514 38.4536 39.3505 38.4937 39.3505 38.4939C39.3503 38.5007 39.3502 38.5074 39.35 38.5141C39.3499 38.5208 39.3497 38.5275 39.3496 38.5342C39.3493 38.5463 39.3481 38.6019 39.3478 38.6134C39.3477 38.6199 39.3476 38.6264 39.3474 38.6329C39.3473 38.6394 39.3471 38.6459 39.347 38.6524C39.3468 38.6626 39.3464 38.6807 39.3461 38.6908C39.346 38.6972 39.3459 38.7036 39.3457 38.7099C39.3456 38.7163 39.3454 38.7226 39.3453 38.7289C39.3452 38.7352 39.345 38.7415 39.3449 38.7477C39.3447 38.754 39.3446 38.7603 39.3445 38.7665C39.3442 38.78 39.3431 38.8275 39.3428 38.8404C39.3427 38.8464 39.3426 38.8525 39.3424 38.8586C39.3423 38.8646 39.3422 38.8706 39.342 38.8766C39.3418 38.8883 39.3415 38.9009 39.3412 38.9125C39.3411 38.9184 39.341 38.9243 39.3408 38.9302C39.3407 38.9361 39.3406 38.942 39.3405 38.9478C39.3403 38.9537 39.3402 38.9595 39.3401 38.9654C39.3399 38.9712 39.3398 38.977 39.3397 38.9828C39.3394 38.9953 39.3384 39.0393 39.3382 39.0513C39.3381 39.0569 39.3379 39.0626 39.3378 39.0682C39.3377 39.0738 39.3376 39.0793 39.3374 39.0849C39.3372 39.0967 39.337 39.1064 39.3367 39.1181C39.3365 39.1293 39.3362 39.1397 39.336 39.1508C39.3359 39.1562 39.3357 39.1616 39.3356 39.1669C39.3355 39.1723 39.3354 39.1777 39.3353 39.183C39.335 39.1946 39.3341 39.2352 39.3339 39.2462C39.3338 39.2514 39.3336 39.2566 39.3335 39.2617C39.3334 39.2669 39.3333 39.272 39.3332 39.2771C39.3329 39.288 39.3328 39.2969 39.3325 39.3076C39.3323 39.3179 39.3321 39.3275 39.3319 39.3377C39.3317 39.3426 39.3316 39.3476 39.3315 39.3525C39.3314 39.3574 39.3313 39.3624 39.3312 39.3673C39.3309 39.3796 39.3302 39.4134 39.3299 39.4251C39.3298 39.4299 39.3297 39.4346 39.3296 39.4393C39.3295 39.444 39.3294 39.4487 39.3293 39.4534C39.3291 39.4641 39.3289 39.4706 39.3287 39.4812C39.3285 39.4906 39.3283 39.4993 39.3281 39.5085C39.328 39.5131 39.3279 39.5176 39.3278 39.5221C39.3277 39.5265 39.3276 39.531 39.3275 39.5355C39.3272 39.5467 39.3266 39.5773 39.3263 39.588C39.3263 39.5887 39.3252 39.6386 39.3252 39.6387C39.325 39.6472 39.3248 39.6551 39.3247 39.6634C39.3246 39.6675 39.3245 39.6715 39.3244 39.6756C39.3243 39.6796 39.3242 39.6837 39.3241 39.6877C39.3239 39.6992 39.3233 39.7239 39.3231 39.7348C39.323 39.7387 39.3229 39.7425 39.3228 39.7463C39.3227 39.7502 39.3227 39.754 39.3226 39.7577C39.3223 39.769 39.3223 39.7691 39.3221 39.7802C39.3219 39.7878 39.3218 39.7948 39.3216 39.8022C39.3215 39.8059 39.3214 39.8095 39.3214 39.8131C39.3213 39.8167 39.3212 39.8203 39.3211 39.8238C39.3208 39.8377 39.3196 39.8942 39.3193 39.9057C39.3192 39.9124 39.319 39.9186 39.3189 39.9251C39.3188 39.9283 39.3187 39.9314 39.3187 39.9346C39.3186 39.9377 39.3185 39.9409 39.3185 39.944C39.3182 39.954 39.3179 39.971 39.3177 39.9805C39.3176 39.9834 39.3175 39.9864 39.3175 39.9893C39.3174 39.9922 39.3173 39.9952 39.3173 39.9981C39.317 40.0087 39.3171 40.0047 39.3169 40.0152C39.3168 40.0211 39.3166 40.0261 39.3165 40.0319C39.3163 40.0427 39.3164 40.0375 39.3162 40.0481C39.3159 40.0622 39.3151 40.0969 39.3148 40.1086C39.3148 40.1088 39.3145 40.1226 39.3145 40.1227C39.3144 40.1297 39.3144 40.1294 39.3142 40.1362C39.314 40.1471 39.3139 40.1518 39.3136 40.162C39.3135 40.1707 39.3133 40.178 39.3131 40.1861C39.3131 40.1863 39.3129 40.1973 39.3129 40.1974C39.3128 40.2011 39.3127 40.2048 39.3126 40.2083C39.3122 40.2296 39.3113 40.2678 39.3111 40.2795C39.311 40.2803 39.3108 40.2927 39.3108 40.2929C39.3107 40.2977 39.3106 40.3002 39.3105 40.3044C39.3102 40.3169 39.3103 40.3122 39.3101 40.3222C39.31 40.3263 39.3099 40.3313 39.3099 40.3329C39.3099 40.3333 39.3098 40.3343 39.3098 40.3345C39.3098 40.3354 39.3098 40.3348 39.3098 40.3356C39.3098 40.3358 39.3098 40.3362 39.3098 40.3363C39.3098 40.3363 39.3098 40.3364 39.3098 40.3364C39.3098 40.3365 39.3098 40.3365 39.5597 40.342ZM40.1317 25.76C40.1317 23.824 40.0742 22.2286 39.9582 20.9759C39.8428 19.7299 39.6679 18.8009 39.4225 18.2118L38.961 18.4042C39.1755 18.9191 39.3457 19.7841 39.4603 21.022C39.5743 22.2534 39.6317 23.832 39.6317 25.76H40.1317ZM39.4018 18.1725L37.1478 14.6765L36.7276 14.9475L38.9816 18.4435L39.4018 18.1725ZM37.1829 14.861L37.3209 14.171L36.8306 14.073L36.6926 14.763L37.1829 14.861ZM37.1307 14.3659C39.2809 13.8813 42.387 13.636 46.4597 13.636V13.136C42.3751 13.136 39.2252 13.3813 37.0208 13.8781L37.1307 14.3659ZM46.2506 13.523C46.5157 13.9276 46.7262 14.5265 46.869 15.3383C47.0113 16.1473 47.0837 17.1514 47.0837 18.354H47.5837C47.5837 17.1339 47.5105 16.0987 47.3615 15.2517C47.2129 14.4075 46.9864 13.7337 46.6689 13.249L46.2506 13.523ZM47.0837 18.354C47.0837 20.7369 46.9309 23.9651 46.6244 28.0413L47.123 28.0787C47.4299 23.9975 47.5837 20.7551 47.5837 18.354H47.0837ZM46.6244 28.0411C46.3176 32.0911 46.1637 35.2265 46.1637 37.444H46.6637C46.6637 35.2455 46.8165 32.1249 47.123 28.0789L46.6244 28.0411ZM46.1637 37.444C46.1637 38.5597 46.2942 39.4323 46.5787 40.0348C46.7225 40.3392 46.9101 40.5844 47.1493 40.7532C47.3908 40.9237 47.6703 41.006 47.9777 41.006V40.506C47.7639 40.506 47.5872 40.4503 47.4377 40.3448C47.2858 40.2376 47.1477 40.0688 47.0308 39.8212C46.7939 39.3197 46.6637 38.5363 46.6637 37.444H46.1637ZM47.9777 41.006C48.3458 41.006 48.7654 40.8608 49.2255 40.6069C49.6896 40.3508 50.2171 39.9718 50.8068 39.4752L50.4847 39.0928C49.909 39.5776 49.4092 39.9345 48.984 40.1691C48.5548 40.4059 48.223 40.506 47.9777 40.506V41.006ZM50.8097 39.4728C51.9888 38.4488 52.9992 37.3455 53.8395 36.1628L53.4319 35.8732C52.6163 37.0211 51.6333 38.0952 50.4818 39.0952L50.8097 39.4728ZM53.8846 36.0422C54.5591 29.1132 54.8977 24.4247 54.8977 21.988H54.3977C54.3977 24.3966 54.0617 29.0615 53.3869 35.9938L53.8846 36.0422ZM54.8977 21.988C54.8977 19.5419 54.5571 17.2617 53.8736 15.149L53.3979 15.303C54.0637 17.361 54.3977 19.5887 54.3977 21.988H54.8977ZM53.7492 15.4488C55.3326 14.6421 57.963 14.0171 61.6685 13.5883L61.611 13.0917C57.8951 13.5216 55.1895 14.1539 53.5223 15.0032L53.7492 15.4488ZM61.4006 13.4131C61.7273 14.482 61.8957 16.0171 61.8957 18.032H62.3957C62.3957 15.9989 62.2269 14.406 61.8788 13.2669L61.4006 13.4131ZM61.8957 18.032C61.8957 20.0073 61.5759 23.4733 60.9318 28.4419L61.4277 28.5061C62.0716 23.5387 62.3957 20.0434 62.3957 18.032H61.8957ZM60.9316 28.4434C60.3186 33.4085 60.0097 36.7206 60.0097 38.364H60.5097C60.5097 36.7567 60.8142 33.4755 61.4279 28.5046L60.9316 28.4434ZM60.0097 38.364C60.0097 39.1772 60.1256 39.8277 60.3882 40.2829C60.6628 40.7589 61.0903 41.006 61.6397 41.006V40.506C61.2691 40.506 61.0067 40.3544 60.8213 40.0331C60.6239 39.6909 60.5097 39.1455 60.5097 38.364H60.0097ZM61.6397 41.006C62.1895 41.006 62.7963 40.751 63.4504 40.2939C64.1085 39.8341 64.8398 39.1517 65.6439 38.2549L65.2716 37.9211C64.481 38.8029 63.7786 39.4546 63.164 39.8841C62.5455 40.3163 62.0406 40.506 61.6397 40.506V41.006ZM65.6439 38.2549C67.2564 36.4563 68.7249 34.2286 70.0513 31.5758L69.6041 31.3522C68.2932 33.974 66.8484 36.1624 65.2716 37.9211L65.6439 38.2549ZM70.0508 31.5768C71.4097 28.89 72.1747 26.4498 72.3311 24.2598L71.8324 24.2242C71.6821 26.3276 70.9444 28.702 69.6046 31.3512L70.0508 31.5768ZM72.208 24.0262L67.332 21.1742L67.0795 21.6058L71.9555 24.4578L72.208 24.0262ZM67.4541 21.419C67.6663 19.6 68.0895 18.0493 68.7184 16.7617L68.2691 16.5423C67.6099 17.892 67.1745 19.5 66.9574 21.361L67.4541 21.419ZM68.7173 16.7638C69.3903 15.4179 69.983 14.5735 70.4872 14.1813L70.1802 13.7867C69.5805 14.2531 68.9465 15.1874 68.2701 16.5402L68.7173 16.7638ZM70.4872 14.1813L71.3152 13.5373L71.0083 13.1427L70.1802 13.7867L70.4872 14.1813ZM71.1617 13.59C72.9898 13.59 74.343 14.0688 75.263 14.9888L75.6165 14.6352C74.5738 13.5925 73.075 13.09 71.1617 13.09V13.59ZM75.2686 14.9942C76.2333 15.9004 76.7077 16.9703 76.7077 18.216H77.2077C77.2077 16.8243 76.6702 15.6249 75.6109 14.6298L75.2686 14.9942ZM76.7077 18.216C76.7077 20.6597 76.0888 23.5265 74.838 26.8213L75.3055 26.9987C76.5693 23.6695 77.2077 20.7403 77.2077 18.216H76.7077ZM74.8373 26.8232C73.6166 30.119 72.0911 33.2003 70.261 36.0675L70.6825 36.3365C72.5324 33.4384 74.0735 30.325 75.3062 26.9968L74.8373 26.8232ZM70.26 36.0691C68.4624 38.933 66.4081 41.367 64.0978 43.3732L64.4257 43.7508C66.7767 41.709 68.8624 39.2363 70.6835 36.3349L70.26 36.0691ZM64.0992 43.372C61.7896 45.3473 59.6992 46.302 57.8217 46.302V46.802C59.8696 46.802 62.0725 45.7633 64.4242 43.752L64.0992 43.372ZM57.8217 46.302C56.7476 46.302 55.7704 45.7975 54.8858 44.736L54.5017 45.056C55.4571 46.2025 56.5652 46.802 57.8217 46.802V46.302ZM54.8884 44.7392C54.0408 43.687 53.5936 42.3334 53.5637 40.6595L53.0638 40.6685C53.0952 42.4292 53.568 43.897 54.499 45.0528L54.8884 44.7392ZM53.1121 40.5162C51.7753 42.3391 50.3683 43.7591 48.8932 44.7826L49.1783 45.1934C50.7085 44.1316 52.1535 42.6689 53.5153 40.8118L53.1121 40.5162ZM48.8932 44.7826C47.419 45.8055 46.0266 46.302 44.7117 46.302V46.802C46.1569 46.802 47.6472 46.2558 49.1783 45.1934L48.8932 44.7826ZM44.7117 46.302C43.4103 46.302 42.2633 45.7707 41.2618 44.6808L40.8937 45.0192C41.9775 46.1987 43.2532 46.802 44.7117 46.802V46.302ZM41.2665 44.6861C40.3013 43.5746 39.8097 42.1339 39.8097 40.342H39.3097C39.3097 42.2301 39.8302 43.7947 40.889 45.0139L41.2665 44.6861ZM84.0245 45.632L84.083 45.389L84.0211 45.374L83.9595 45.3906L84.0245 45.632ZM77.1705 46.138L76.9222 46.109L76.9006 46.2943L77.072 46.3678L77.1705 46.138ZM79.8845 32.568L79.6406 32.5132L79.6404 32.514L79.8845 32.568ZM81.7245 17.48L81.5149 17.6162L81.5149 17.6162L81.7245 17.48ZM80.5285 15.916L80.7117 15.7459L80.5285 15.916ZM79.9305 15.272L79.6853 15.223L79.6603 15.3484L79.7473 15.4421L79.9305 15.272ZM80.0685 14.582L80.018 14.3371L79.8558 14.3706L79.8233 14.533L80.0685 14.582ZM99.2965 15.18L99.1459 15.3796L99.1501 15.3827L99.2965 15.18ZM94.0985 28.98L94.0229 28.7417L94.0688 29.2282L94.0985 28.98ZM99.2505 31.326L99.0777 31.5068L99.0819 31.5106L99.2505 31.326ZM98.2385 43.838L98.4023 44.0268L98.2385 43.838ZM87.1985 30.452L87.1431 30.2082L86.9894 30.2431L86.9547 30.3968L87.1985 30.452ZM84.6685 42.642L84.4216 42.6025L84.3965 42.7594L84.5279 42.8487L84.6685 42.642ZM92.4885 41.492L92.6739 41.6597L92.6758 41.6575L92.4885 41.492ZM90.0045 16.514L89.8277 16.3372L89.77 16.3949L89.7575 16.4756L90.0045 16.514ZM87.8885 27.37L87.6443 27.3165L87.5778 27.62H87.8885V27.37ZM91.7525 26.542L91.6214 26.3289L91.6138 26.334L91.7525 26.542ZM93.0865 25.392L92.9049 25.2202L92.9044 25.2207L93.0865 25.392ZM90.3265 46.302C88.6982 46.302 86.6189 46 84.083 45.389L83.9659 45.875C86.5207 46.4907 88.6428 46.802 90.3265 46.802V46.302ZM83.9595 45.3906C82.382 45.8153 80.9167 46.026 79.5625 46.026V46.526C80.9682 46.526 82.4776 46.3074 84.0895 45.8734L83.9595 45.3906ZM79.5625 46.026C78.8744 46.026 78.3355 46.0145 77.9439 45.9919C77.7479 45.9806 77.5921 45.9667 77.4745 45.9507C77.3504 45.9337 77.2893 45.9169 77.269 45.9082L77.072 46.3678C77.159 46.4051 77.2781 46.4285 77.407 46.4461C77.5424 46.4646 77.7124 46.4794 77.9151 46.4911C78.3208 46.5145 78.8706 46.526 79.5625 46.526V46.026ZM77.4188 46.167C77.6317 44.3425 78.5329 39.8333 80.1286 32.622L79.6404 32.514C78.0467 39.716 77.1386 44.2535 76.9222 46.109L77.4188 46.167ZM80.1284 32.6228C80.9415 29.0024 81.5518 26.0545 81.9591 23.7801C82.3653 21.5114 82.5725 19.8968 82.5725 18.952H82.0725C82.0725 19.8472 81.8734 21.4219 81.4669 23.6919C81.0615 25.9562 80.4528 28.8963 79.6406 32.5132L80.1284 32.6228ZM82.5725 18.952C82.5725 18.5073 82.3376 17.9645 81.9341 17.3438L81.5149 17.6162C81.9087 18.2221 82.0725 18.6607 82.0725 18.952H82.5725ZM81.9341 17.3438C81.5294 16.7212 81.1222 16.1879 80.7117 15.7459L80.3453 16.0861C80.7321 16.5027 81.1222 17.0121 81.5149 17.6162L81.9341 17.3438ZM80.7117 15.7459L80.1137 15.1019L79.7473 15.4421L80.3453 16.0861L80.7117 15.7459ZM80.1756 15.321L80.3136 14.631L79.8233 14.533L79.6853 15.223L80.1756 15.321ZM80.119 14.8269C84.1177 14.0027 88.4246 13.59 93.0405 13.59V13.09C88.395 13.09 84.0539 13.5053 80.018 14.3371L80.119 14.8269ZM93.0405 13.59C95.5453 13.59 97.5738 14.1931 99.1459 15.3795L99.4471 14.9805C97.7685 13.7136 95.6264 13.09 93.0405 13.09V13.59ZM99.1501 15.3827C100.736 16.5282 101.53 18.1367 101.53 20.24H102.03C102.03 17.9886 101.169 16.2238 99.4429 14.9773L99.1501 15.3827ZM101.53 20.24C101.53 22.2854 100.909 24.0039 99.6722 25.411C98.4313 26.8227 96.5562 27.9377 94.0229 28.7417L94.1741 29.2183C96.7621 28.3969 98.728 27.2426 100.048 25.741C101.372 24.2348 102.03 22.3959 102.03 20.24H101.53ZM94.0688 29.2282C96.0746 29.4677 97.7403 30.2287 99.0778 31.5067L99.4232 31.1453C98.0007 29.786 96.2317 28.9829 94.1281 28.7318L94.0688 29.2282ZM99.0819 31.5106C100.429 32.7404 101.116 34.4911 101.116 36.8H101.616C101.616 34.3863 100.893 32.4876 99.4191 31.1414L99.0819 31.5106ZM101.116 36.8C101.116 39.6139 100.103 41.8897 98.0746 43.6492L98.4023 44.0268C100.545 42.1677 101.616 39.7515 101.616 36.8H101.116ZM98.0746 43.6492C96.0417 45.413 93.4655 46.302 90.3265 46.302V46.802C93.5661 46.802 96.2646 45.8817 98.4023 44.0268L98.0746 43.6492ZM89.4985 29.972C88.6254 29.972 87.8397 30.0499 87.1431 30.2082L87.2539 30.6958C87.9066 30.5474 88.6542 30.472 89.4985 30.472V29.972ZM86.9547 30.3968C85.6361 36.2231 84.791 40.2936 84.4216 42.6025L84.9153 42.6815C85.2819 40.3904 86.1236 36.3342 87.4423 30.5072L86.9547 30.3968ZM84.5279 42.8487C85.3569 43.4125 86.6143 43.674 88.2565 43.674V43.174C86.648 43.174 85.5134 42.9142 84.8091 42.4353L84.5279 42.8487ZM88.2565 43.674C89.9869 43.674 91.4638 42.9972 92.6739 41.6597L92.3031 41.3243C91.1825 42.5628 89.838 43.174 88.2565 43.174V43.674ZM92.6758 41.6575C93.895 40.2779 94.4865 38.3243 94.4865 35.834H93.9865C93.9865 38.2503 93.4126 40.0687 92.3012 41.3265L92.6758 41.6575ZM94.4865 35.834C94.4865 33.9342 94.0864 32.4627 93.243 31.4637C92.3928 30.4567 91.1285 29.972 89.4985 29.972V30.472C91.0271 30.472 92.1318 30.9227 92.861 31.7863C93.5969 32.658 93.9865 33.9925 93.9865 35.834H94.4865ZM92.0745 15.942C91.4862 15.942 91.0079 15.969 90.6446 16.0255C90.4629 16.0537 90.3036 16.0903 90.1708 16.1376C90.0409 16.1838 89.9185 16.2464 89.8277 16.3372L90.1813 16.6908C90.1978 16.6742 90.2422 16.6429 90.3384 16.6086C90.4318 16.5754 90.5581 16.5449 90.7214 16.5195C91.0481 16.4687 91.4974 16.442 92.0745 16.442V15.942ZM89.7575 16.4756C89.3292 19.2284 88.6251 22.8414 87.6443 27.3165L88.1327 27.4235C89.1145 22.9439 89.8211 19.3196 90.2515 16.5524L89.7575 16.4756ZM87.8885 27.62C89.1151 27.62 90.0083 27.5445 90.5391 27.3786L90.3899 26.9014C89.9394 27.0422 89.1152 27.12 87.8885 27.12V27.62ZM90.5391 27.3786C91.0488 27.2193 91.5005 27.0105 91.8912 26.75L91.6138 26.334C91.2685 26.5642 90.8615 26.754 90.3899 26.9014L90.5391 27.3786ZM91.8835 26.7549C92.3081 26.4936 92.7698 26.0932 93.2685 25.5633L92.9044 25.2207C92.4218 25.7335 91.9942 26.0997 91.6215 26.3291L91.8835 26.7549ZM93.2681 25.5638C94.4051 24.3618 94.9465 22.4758 94.9465 19.964H94.4465C94.4465 22.4202 93.9145 24.1528 92.9049 25.2202L93.2681 25.5638ZM94.9465 19.964C94.9465 18.6854 94.7257 17.682 94.2463 16.9923C93.7554 16.2861 93.0169 15.942 92.0745 15.942V16.442C92.88 16.442 93.4526 16.7266 93.8357 17.2777C94.2303 17.8453 94.4465 18.7279 94.4465 19.964H94.9465Z" fill="black"/>
</svg>
