<svg width="512" height="512" viewBox="0 0 512 512" fill="none" xmlns="http://www.w3.org/2000/svg">
<path d="M256 512C397.385 512 512 397.385 512 256C512 114.615 397.385 0 256 0C114.615 0 0 114.615 0 256C0 397.385 114.615 512 256 512Z" fill="#FF9A76"/>
<path d="M272.684 511.445C375.839 504.806 462.367 437.093 496.449 344.071L382.183 229.805L379.406 237.183L341.333 199.111L292.969 248.761L204 159.792L156.013 231.865L112.143 286.973L175.29 349.375L128 366.761L272.684 511.445Z" fill="#121149"/>
<path d="M121.463 294.259C146.748 311.381 177.845 313.277 203.973 302.079C204.669 273.659 191.363 245.487 166.078 228.365C140.793 211.243 109.696 209.347 83.568 220.545C82.872 248.965 96.178 277.137 121.463 294.259Z" fill="#66B31B"/>
<path d="M166.079 228.364C140.967 211.359 110.124 209.387 84.1074 220.334L203.967 301.132C204.35 273.034 191.083 245.296 166.079 228.364Z" fill="#66B31B"/>
<path d="M84.1079 220.334C83.9299 220.408 83.7479 220.468 83.5699 220.546C82.8739 248.966 96.1799 277.138 121.465 294.26C146.75 311.382 177.847 313.278 203.975 302.08C203.984 301.765 203.965 301.451 203.97 301.134L84.1079 220.334Z" fill="#599B13"/>
<path d="M147.942 218.393C150.854 248.789 169.203 273.968 194.481 286.973C216.831 269.405 230.068 241.198 227.156 210.802C224.244 180.404 205.895 155.227 180.617 142.222C158.267 159.791 145.03 187.997 147.942 218.393Z" fill="#7CBC39"/>
<path d="M180.617 142.222C158.267 159.79 145.03 187.997 147.942 218.393C150.847 248.711 169.112 273.832 194.287 286.865L181.006 142.438C180.876 142.369 180.75 142.291 180.617 142.222Z" fill="#679B2C"/>
<path d="M312.889 341.333H199.111L170.667 199.111H341.333L312.889 341.333Z" fill="#FFD15D"/>
<path d="M384 338.316H128V366.76H384V338.316Z" fill="#F9B54C"/>
<path d="M382.914 338.316H254.914V366.76H382.914V338.316Z" fill="#F4A200"/>
<path d="M355.987 218.936C348.714 218.936 341.944 221.072 336.216 224.706L341.334 199.111H256V341.333H312.889L325.698 277.292C332.413 286.815 343.475 293.064 355.987 293.064C376.424 293.064 393.051 276.437 393.051 256C393.051 235.563 376.423 218.936 355.987 218.936ZM355.987 275.825C345.056 275.825 336.162 266.931 336.162 256C336.162 245.069 345.056 236.175 355.987 236.175C366.918 236.175 375.812 245.069 375.812 256C375.811 266.931 366.918 275.825 355.987 275.825Z" fill="#F9B54C"/>
</svg>
